<svg version="1.1" id="_x2018_лой_x5F_1" xmlns="http://www.w3.org/2000/svg" x="0" y="0" viewBox="0 0 2501.7 1755" xml:space="preserve"><defs/><style>.st1{fill:#0a2142}.st3{fill:#2b478b}.st4{fill:#07224f}.st5{fill:#219653}.st6{fill:#ffb27d}.st7{fill:#1c4b8e}.st8{fill:#217253}.st9{fill:#172f51}.st11{fill:#163560}.st12{fill:#1f4d84}.st16{fill:#233862}.st22{fill:#fff}.st27{fill:#a8d29f}</style><path d="M239 1738s-406-347-97-675c328-350 37-800 483-981 483-196 607 149 809 96 403-105 914-53 829 460-107 645 331 563 71 1102l-2095-2z" fill="#e9f3fb"/><path class="st1" d="M836 518h891v1219H836z"/><path fill="#f3faff" d="M874 551h815v1152H874z"/><path class="st3" d="M1112 518v41c0 23 19 42 42 42h223c23 0 41-19 41-42v-41h-306z"/><path class="st1" d="M968 1540h101v10H968zM1093 1540h101v10h-101zM968 1563h140v10H968z"/><path class="st4" d="M1055 790h438v6h-438z"/><path class="st1" d="M1608 979h-148V831h147v148zm-141-7h134V838h-134v134z"/><path class="st5" d="M1537 949c-3 0-6-1-8-3l-45-56a10 10 0 0116-13l36 44 65-110a10 10 0 0118 11l-73 122a10 10 0 01-9 5z"/><g><path class="st1" d="M1019 853h327v15h-327zM1019 918h302v14h-302zM1257 885h89v15h-89zM1019 885h213v15h-213z"/><g><path class="st1" d="M945 866l-14 4-3-11 21-7h11v82h-15v-68zM969 928a5 5 0 1110 0 5 5 0 01-10 0z"/></g></g><g><path class="st1" d="M1609 1199h-148v-147h148v147zm-141-7h134v-133h-134v133z"/><path class="st5" d="M1539 1170c-4 0-6-2-8-4l-46-55a10 10 0 0116-14l36 44 65-109a10 10 0 0118 10l-72 122a10 10 0 01-9 6z"/><g><path class="st1" d="M927 1143l28-24c11-9 15-15 15-22 0-8-6-12-13-12s-13 4-19 12l-10-8c8-11 16-17 30-17 16 0 27 10 27 24 0 13-7 20-21 32l-17 13h38v13h-58v-11zM995 1149a5 5 0 1110 0 5 5 0 01-10 0z"/><g><path class="st1" d="M1021 1074h345v14h-345zM1021 1138h318v14h-318zM1272 1106h94v14h-94zM1021 1106h225v14h-225z"/></g></g></g><g><path class="st1" d="M1609 1421h-148v-147h148v147zm-141-7h134v-133h-134v133z"/><path class="st5" d="M1539 1391c-4 0-6-1-8-3l-46-55a10 10 0 0116-14l36 44 65-110a10 10 0 0118 11l-72 122a10 10 0 01-9 5z"/><path class="st1" d="M1021 1295h345v15h-345zM1021 1360h318v14h-318zM1272 1328h94v14h-94zM1021 1328h225v14h-225z"/><g><path class="st1" d="M926 1361l10-9c5 7 12 10 21 10 7 0 13-4 13-12s-7-12-18-12h-6l-3-9 22-22h-35v-12h53v10l-22 23c12 1 23 8 23 22 0 15-11 25-28 25-14 0-23-6-30-14zM988 1370a5 5 0 1110 0 5 5 0 01-10 0z"/></g></g><g><path class="st1" d="M1341 1573c-29 0-55-21-61-50a4 4 0 119-2 54 54 0 00105 0c1-2 3-3 5-3 3 1 4 3 4 5-7 29-32 50-62 50zM1284 1503h-1c-2 0-3-3-3-5a63 63 0 01122-3 4 4 0 01-8 2 54 54 0 00-106 3c0 2-2 3-4 3z"/><path class="st1" d="M1341 1599a89 89 0 111-178 89 89 0 01-1 178zm0-166a77 77 0 101 154 77 77 0 00-1-154z"/><path class="st1" d="M1324 1499h35v6h-35zM1324 1522h35v6h-35zM1316 1510h51v6h-51z"/></g><g><path class="st6" d="M765 1128s2-7 4-9c2-3 10-12 11-10s6 15 4 19c-3 3 0 10-14 14l-5-14z"/><path class="st1" d="M611 1088s71 59 98 54c22-4 55-16 55-16l7 17s-30 40-61 41c-48 0-84-21-84-21l-15-75z"/><path class="st7" d="M488 1710s2 33 8 33h73s0-10-12-12-32-10-39-26-30 5-30 5z"/><path class="st5" d="M485 1712s13 4 22 4c11 0 21-3 21-3s2-22 15-71c6-26 16-59 29-100a1354 1354 0 0050-187v-1l-115-50s14 157-4 217c-2 8-5 18-6 29-12 65-12 162-12 162z"/><path class="st8" d="M543 1642c6-26 16-59 29-100a1354 1354 0 0050-188l-115-50s14 157-4 217c-2 8 40 121 40 121z"/><path class="st7" d="M577 1710s2 33 9 33h73s-1-10-12-12c-12-2-32-10-39-26-8-16-31 5-31 5z"/><path class="st5" d="M643 1308s1 101-16 226c-18 125-12 178-12 178l-17 4c-12 1-25-3-25-3s-25-125-18-187c7-63-35-214-35-214l123-4z"/><path class="st6" d="M561 1070l23 15 20-6c4-5 5-16 5-25l-1-16-30-13-12-5 1 10c3 24-6 40-6 40z"/><path class="st9" d="M643 1336c-28 27-133 22-140-7-7-30 7-253 55-267 10-3 63 14 63 14s8 22 13 49a2852 2852 0 019 211z"/><path d="M570 1031c6 10 27 19 39 23l-1-16-30-13c-7 0-11 1-8 6z" fill="#fca56b"/><path class="st6" d="M619 1036s-48 15-57-15c-9-31-22-49 9-60s40-1 46 8c5 10 15 62 2 67z"/><path class="st11" d="M615 966s-3 36-11 34c-7-1-15-5-14 6s-7 29-18 29c-22 0-47-58-41-69 18-32 110-39 84 0z"/><path class="st1" d="M608 1063c-1-1-37-17-41-15-4 1-9 14-9 14l63 14s-5-10-13-13z"/><path class="st12" d="M830 1235l-200 189c-4 3-9 5-11 2l-7-7c-2-2-1-7 3-11l200-188c4-4 9-5 11-3l7 8c2 2 1 7-3 10z"/><path d="M718 1341l-88 83c-4 3-9 5-11 2l-7-7c-2-2-1-7 3-11l88-82 15 15z" fill="#739af0"/><path class="st12" d="M784 1164a157 157 0 1036-153c-40 43-52 101-36 153zm45-144a144 144 0 11210 197 144 144 0 01-210-197z"/><path d="M1039 1217a144 144 0 01-204 7 144 144 0 11204-7z" fill="#b3cff9" opacity=".5"/><path class="st1" d="M643 1308c-110-79-101-183-101-183 41 22 80 73 99 116l2 67z"/><g><path class="st6" d="M752 1272c8-2 13-8 14-9 0 0 3 1 0 8l-2 3 1 1c4 0 9-2 17 0l2 5c0 2 0 4-3 7-1 2-5 4-14 7-3 2-12 1-21-2l-7-4 2-13 2 1c3 0 6-3 9-4z"/><path class="st9" d="M576 1076s-99 19 30 162c20 23 131 53 131 53s11-10 5-17c0 0-76-56-93-64-7-4-29-89-41-109-13-20-32-25-32-25z"/></g><path class="st6" d="M767 1129s4-6 4-9c1-3 5-13 7-14 0-1 2 0 3 3l-2 6c-2 4-1 10-2 12-2 5-10 2-10 2z"/></g><g><path class="st3" d="M1094 1696l1 5a41 41 0 0040 36h575a41 41 0 100-81h-575c-22 0-41 18-41 40zM1138 1648h197c4 0 6-3 6-6 0-4-2-6-6-6h-197c-3 0-6 2-6 6 0 3 3 6 6 6z"/><path transform="rotate(-180 1160 1652)" class="st16" d="M1149 1648h21v8h-21z"/><path class="st16" d="M1099 1716a41 41 0 0036 21h122v-21h-158z"/><path class="st5" d="M1827 1684v24l-1 8c-4 12-15 21-28 21h-599a29 29 0 01-29-29v-24c0-15 13-28 29-28h599c16 0 29 13 29 28z"/><path class="st8" d="M1826 1716c-4 12-15 21-28 21h-599c-13 0-24-9-28-21h655z"/><path d="M1767 1697c0 12 5 24 12 31l1 1c5 5 12 9 20 9 12 0 42-19 61-31l16-10-16-11c-19-12-49-30-61-30-3 0-7 0-10 2-5 2-10 5-14 10-4 6-7 13-8 20v1l-1 8z" fill="#c4c4c4"/><path d="M1767 1697c0 12 5 24 12 31l92-32-103-7-1 8z" fill="#e0e0e0"/><path d="M1776 1668l92 26-78-36c-5 2-10 6-14 10z" fill="#eaeaea"/><path d="M1855 1697c0 4 2 9 6 10l16-10-16-11c-4 2-6 6-6 11z" fill="#182d4c"/></g><g><path class="st11" d="M2018 950c-15-8-28-3-28-3-46-6-60 49-59 67 0 19 3 39-18 63-60 70 66 74 66 74 1-56 68-36 65-30 86 20 8-153-26-171z"/><path class="st6" d="M1838 1172s-8-12-15-13c-6 0-18-3-17-1s8 3 9 4-11 4-15 4c-3 0-11 0-11 2s14 9 25 8c10-1 22 3 22 3l2-7z"/><path class="st5" d="M1957 1176l-13 19c-10 12-25 26-44 29-9 1-17-1-25-4-23-10-41-34-41-34-4-11 3-18 3-18s46 10 51 8c4-2 31-62 36-72 10-21 27-27 27-27l6 99z"/><path class="st8" d="M1944 1195c-10 12-25 26-44 29-9 1-17-1-25-4 0 0 23 3 32-13 10-17 20-43 34-35 6 4 5 14 3 23z"/><path class="st7" d="M2129 1675s14 13 11 22c-2 9-15 15-17 26s-9 17-15 17h-29s-5-7 6-10c11-2 15-15 15-27-1-13 1-29 1-29l23-5 5 6zM2010 1680s5 55-2 58h-79s0-10 13-12 35-9 39-26c4-16 29-20 29-20z"/><path class="st5" d="M2071 1139v37c-1 13-15 31-17 35-4 11-10 13-10 13l-41 10-15 4-46-14s-21-59-13-92c9-33 22-55 22-55s31-13 86-4l34 66z"/><path d="M2058 1181c0 14-2 26-4 30-4 11-10 13-10 13l-41 10-18-5s60-9 53-61l20 13z" fill="#f2ccaa"/><path class="st1" d="M1945 1233s-23 71-24 95c-2 24 43 344 45 355s15 17 15 17 6 4 14 2c12-4 16-8 16-8s18-228 7-309c-11-82-11-152-11-152h-62z"/><path class="st4" d="M2042 1231s35 47 38 78c3 32 5 143 12 174 7 30 32 90 32 186 0 0-3 5-11 8l-9 3c-7 1-14-2-17-8-17-35-72-146-75-170-2-16-19-124-57-188-9-15 6-76 6-76l81-7z"/><path class="st16" d="M1941 1222s9 7 28 8c21 0 75-6 75-6s3 7 3 14c0 0-66 16-104 2 0 0-5-9-2-18z"/><path class="st22" d="M1963 1248c-5 0-9-5-9-11s4-11 9-11c6 0 10 5 10 11s-4 11-10 11zm0-19c-3 0-6 4-6 8 0 5 3 8 6 8 4 0 7-3 7-8 0-4-3-8-7-8z"/><path class="st3" d="M2108 1241l-53 47c-4 3-10 2-13-1l-69-79c-3-4-2-9 1-13l54-46c4-4 10-3 13 1l68 78c3 4 3 10-1 13z"/><path class="st6" d="M2029 1235c-1 0-28 4-28 9 0 7 8 16 15 15 4 0 18-13 18-13l-5-11zM2015 1070c-3-7-5-19-5-33h-2l-35 7 1 22c0 9-6 18 8 22 5 1 40-2 33-18z"/><path d="M1973 1044l1 22c19-1 30-19 34-29l-35 7z" fill="#e8945b"/><path class="st6" d="M1966 1054s47 1 47-28 6-49-24-50c-30-2-35 9-38 19-2 9 3 58 15 59z"/><path class="st11" d="M1968 975s13 34 32 39c20 5 28 0 28 0s-15-12-18-33c0 0-32-22-42-6z"/><path class="st11" d="M1971 978s-9 3-13 10-7 16-6 27c0 0-10-23 1-36 11-14 18-1 18-1z"/><path class="st6" d="M2029 1235s-7-2-11-1c-4 0-8-1-8 1l7 2c2 1 12-2 12-2z"/><path class="st5" d="M2037 1073s33 3 46 33c13 31 37 83 37 92s-14 35-86 50c0 0-7-7-7-14 0 0 45-38 45-43 0-8-7-20-47-59-10-11 12-59 12-59z"/></g><g><path class="st16" d="M921 159s-27-4-43 9-20 8-29 16c-10 8 0 17-5 22-6 6-6 16 2 18 8 3 2 17 19 19s9 10 25 11 29 2 38 5c8 4 16 0 18-6 3-7 9 1 11-7 2-9-5-13-1-20s14-57-35-67z"/><path class="st6" d="M967 667a7 7 0 00-2 8c2 4 8 9 14 14l2 2 1 1c6 6 4 7 15 18 13 13 21 13 24 12 2-1-3-8-7-16l-1-1-2-3c-5-9-4-13-3-27 1-11 17-63 17-63l-24-3s-6 40-14 47c-4 3-9 3-13 6h-1l-6 5z"/><path class="st16" d="M967 667a7 7 0 00-2 8l14 14 2 2 1 1c6 6 4 7 15 18 13 13 21 13 23 12 3-1-2-8-6-16-3 0-14-5-23-16-7-9-12-21-17-28h-1l-6 5z"/><path class="st6" d="M1158 651c1 8 11 6 23 3s9 1 26-1c16-2 21-8 22-11 0-2-8-3-17-4h-3c-10-1-18-7-27-13-8-5-21-25-21-25l-23 2 17 26c3 5 3 11 2 16l1 7z"/><path class="st16" d="M1181 654c12-3 9 1 26-1 16-2 21-8 22-11 0-2-8-3-17-4v1s-10 7-24 7c-11 1-23-3-31-2l1 7c1 8 11 6 23 3z"/><path class="st8" d="M1069 507l-20 57-28 75s-7 1-14-1-15-7-15-7 7-81 21-127c4-12 8-21 13-27 22-26 43 30 43 30z"/><path class="st5" d="M1047 416c-14-5-54 2-93 10l-9-14-86-6s-27 59-12 103c3 9 16 9 16 9h68c43 0 90-30 96-31 10-2 15 18 25 39s96 94 96 94 13 0 18-2c6-2 8-5 8-5s-95-187-127-197z"/><path class="st6" d="M918 279s-15 5-25 1-17-20-17-20c4 0 9-4 13-29l1 1 32 11-4 19c-1 8-2 16 0 17z"/><path d="M922 243l-4 17c-17-3-25-19-28-28l32 11z" fill="#ed975d"/><path class="st6" d="M926 253s-42-6-39-32c4-27 1-46 29-43 27 2 31 13 32 22s-10 53-22 53z"/><path class="st16" d="M946 186s-27 23-46 25c-18 2-25-4-25-4s11-9 17-23c2-5 6-8 11-8 13-1 38-2 43 10z"/><path class="st16" d="M929 184s9 8 12 15c3 6 4 21 2 27 0 0 14-27 6-41-9-14-20-1-20-1z"/><path class="st22" d="M954 342c0 86 1 68-9 76-2 2-9 3-17 4-26 2-73-2-75-7-6-17-2-22-7-48l-2-9c-5-18-9-24 6-53 14-26 28-47 29-46 36 21 39 3 39 3s37 37 36 80z"/><path class="st5" d="M1049 564l-28 75s-7 1-14-1-15-7-15-7 7-81 21-127l36 60z"/><path class="st22" d="M918 262s37 6 42 22l31 110s-19 4-28-5-31-81-31-81l-14-46z"/><path d="M928 422c-26 2-73-2-75-7-6-17-2-22-7-48l12-36s-1 40 10 51c12 10 49 20 55 28l5 12z" fill="#99b1ff"/><path class="st6" d="M898 405s26-6 30-3c4 2 15 10 16 13s-10-2-13-3l-11 3c-12 4-20 2-20 2l-2-12z"/><path class="st22" d="M879 259s-35 2-47 19c-17 24-50 126-31 140 22 15 100 3 100 3s2-12-1-18c-4-6-62-15-65-17-3-3 33-53 33-61s11-66 11-66z"/><path class="st6" d="M929 409l8 8h3l-4-6-7-2zM928 402l16 7-3 1-7-1-6-7z"/><g><path class="st16" d="M933 428l126-1 37-94-125 1z"/><path class="st16" d="M1061 424l-167 1v4l165-2z"/><path d="M1027 381c1-4-1-6-4-6-4 0-7 2-8 6-1 3 1 6 4 6 4 0 7-3 8-6z" fill="#ebf3fa"/></g></g><path class="st27" d="M292 1737h92c5-4-3-14-12-14-4-1-9 0-14 1-1-16-9-92-36-89-30 3 0 33 9 51l16 41-8 1c-4-12-19-54-38-52-22 3-13 20 3 30l33 23-18 1c-16 0-24 5-27 7zM2282 1737h-101c-6-5 4-15 13-16l16 2c1-19 9-102 39-99 34 4 0 37-9 56l-18 45 8 2c5-14 21-60 43-57 25 3 15 21-3 33l-37 25 20 1c18 0 26 5 29 8z"/><path class="st16" d="M2428 1744H138c-2 0-3-1-3-3v-1c0-2 1-3 3-3h2290c2 0 3 1 3 3v1c0 2-1 3-3 3z"/><text transform="translate(1049 759)" font-size="71" font-family="Helvetica-Bold">AGREEMENT</text></svg>