<svg version="1.1" id="_x2018_лой_x5F_1" xmlns="http://www.w3.org/2000/svg" x="0" y="0" viewBox="0 0 3200 1740.6" xml:space="preserve"><defs/><style>.st1{opacity:.4}.st2{fill:#c3dafc}.st3{fill:#d4e4f8}.st4{fill:#9dc3f3}.st5{fill:#e3f0ff}.st6{fill:#fff}.st7{fill:#a9c8ed}.st8{fill:#2a4e96}.st9{fill:#618dc1}.st12{fill:#4c64a5}.st13{fill:#aec3ff}.st14{fill:#209453}.st15{fill:#1c468a}.st16{fill:#f99746}.st17{fill:#afcdfb}.st18{fill:#060633}.st19{fill:#207253}.st20{fill:#163560}.st21{fill:#2b478b}.st22{fill:#ffb27d}.st26{fill:#1f5099}.st27{fill:#fca56b}.st28{fill:#b5453c}</style><path d="M3027 1726c-184 0-2872 1-2874-4v-1c-1-2-413-747 228-971 279-97-16-258 184-431 230-199 480 21 736-69 45-16 90-42 135-81a496 496 0 01153-92l40-14a732 732 0 01206-37c285-18 606 83 772 231 33 30 185 185 65 397-75 134 271 134 383 287 286 389-25 780-28 785z" fill="#e8f2fa"/><g class="st1"><path transform="rotate(-180 1085 526)" class="st2" d="M982 441h206v171H982z"/><path transform="rotate(-180 1188 526)" class="st3" d="M1085 441h207v171h-207z"/><path class="st4" d="M982 568h33l-3-9 3-6h-33z"/><path class="st5" d="M1085 494h33l-3-9 3-7h-33z"/><path class="st4" d="M1085 478h-33l3 9-3 7h33z"/><path class="st5" d="M1292 570h-33l3 9-3 7h33z"/><path class="st6" d="M1219 453h59v23h-59z"/><g><path transform="rotate(-180 720 526)" class="st2" d="M617 441h206v171H617z"/><path transform="rotate(-180 823 526)" class="st3" d="M720 441h207v171H720z"/><path class="st4" d="M617 568h33l-3-9 3-6h-33z"/><path class="st5" d="M720 494h33l-3-9 3-7h-33z"/><path class="st4" d="M720 478h-33l3 9-3 7h33z"/><path class="st5" d="M927 570h-33l3 9-3 7h33z"/><path class="st6" d="M854 453h59v23h-59z"/></g><g><path class="st2" d="M483 612h80v948h-80zM1354 612h67v948h-67z"/><path class="st2" d="M563 612h858v24H563zM563 1061h858v25H563zM563 1438h858v24H563z"/><path transform="rotate(-180 1103 973)" class="st7" d="M996 885h214v176H996z"/><path transform="rotate(-180 1210 973)" class="st3" d="M1103 885h213v176h-213z"/><path class="st4" d="M996 1016h34l-3-9 3-7h-34z"/><path class="st5" d="M1103 939h34l-3-9 3-7h-34z"/><path class="st4" d="M1103 923h-34l3 9-3 7h34z"/><path class="st5" d="M1316 1018h-33l3 10-3 6h33z"/><path class="st6" d="M1241 897h62v24h-62z"/><g><path transform="rotate(-180 829 973)" class="st2" d="M722 885h213v176H722z"/><path transform="rotate(-180 935 973)" class="st3" d="M829 885h213v176H829z"/><path class="st4" d="M722 1016h34l-3-9 3-7h-34z"/><path class="st5" d="M829 939h33l-2-9 2-7h-33z"/><path class="st4" d="M829 923h-34l3 9-3 7h34z"/><path class="st5" d="M1042 1018h-34l3 10-3 6h34zM1042 921h-34l3 9-3 7h34z"/><path class="st6" d="M850 1003h100v39H850z"/></g><g><path transform="rotate(-180 1088 1361)" class="st2" d="M996 1285h185v152H996z"/><path transform="rotate(-180 1181 1361)" class="st3" d="M1088 1285h185v152h-185z"/><path class="st4" d="M996 1399h29l-2-9 2-6h-29z"/><path class="st5" d="M1088 1332h30l-3-8 3-6h-30z"/><path class="st4" d="M1088 1318h-29l3 8-3 6h29z"/><path class="st5" d="M1273 1400h-29l2 8-2 6h29z"/><path class="st6" d="M1208 1295h53v21h-53z"/></g><g><path transform="rotate(-180 752 1349)" class="st2" d="M645 1261h214v176H645z"/><path transform="rotate(-180 859 1349)" class="st3" d="M752 1261h214v176H752z"/><path class="st8" d="M645 1392h34l-3-9 3-7h-34z"/><path class="st9" d="M752 1315h34l-3-9 3-7h-34z"/><path class="st8" d="M752 1299h-34l3 10-3 6h34z"/><path class="st9" d="M966 1394h-34l3 10-3 7h34z"/><path class="st6" d="M890 1273h62v24h-62z"/></g><g><path transform="rotate(-180 787 817)" class="st2" d="M705 749h164v135H705z"/><path transform="rotate(-180 869 817)" class="st3" d="M787 749h163v135H787z"/><path class="st4" d="M706 850h25l-2-8 2-5h-25z"/><path class="st5" d="M787 791h26l-2-7 2-6h-26z"/><path class="st4" d="M787 778h-26l2 8-2 5h26z"/><path class="st5" d="M950 851h-25l2 7-2 6h25z"/><path class="st6" d="M893 758h47v19h-47z"/></g><g><path transform="rotate(-180 1079 817)" class="st2" d="M997 749h164v135H997z"/><path transform="rotate(-180 1161 817)" class="st3" d="M1079 749h163v135h-163z"/><path class="st4" d="M997 850h26l-2-8 2-5h-26z"/><path class="st5" d="M1079 791h26l-3-7 3-6h-26z"/><path class="st4" d="M1079 778h-26l2 8-2 5h26z"/><path class="st5" d="M1242 851h-26l3 7-3 6h26z"/><path class="st6" d="M1185 758h47v19h-47z"/></g></g></g><g class="st1"><path class="st2" d="M1789 476h206v170h-206z"/><path class="st3" d="M1685 476h207v170h-207z"/><path class="st4" d="M1995 603h-33l3-9-3-7h33z"/><path class="st5" d="M1892 529h-33l3-10-3-6h33z"/><path class="st4" d="M1892 513h33l-3 9 3 7h-33z"/><path class="st5" d="M1685 605h33l-3 9 3 7h-33z"/><path transform="rotate(-180 1729 499)" class="st6" d="M1699 487h59v24h-59z"/><g><path class="st2" d="M2154 476h206v170h-206z"/><path class="st3" d="M2050 476h207v170h-207z"/><path class="st4" d="M2360 603h-33l3-9-3-7h33z"/><path class="st5" d="M2257 529h-33l3-10-3-6h33z"/><path class="st4" d="M2257 513h33l-3 9 3 7h-33z"/><path class="st5" d="M2050 605h33l-3 9 3 7h-33z"/><path transform="rotate(-180 2093 499)" class="st6" d="M2064 487h59v24h-59z"/></g><g><path transform="rotate(-180 2454 1120)" class="st2" d="M2414 646h80v948h-80z"/><path transform="rotate(-180 1589 1120)" class="st2" d="M1556 646h67v948h-67z"/><path transform="rotate(-180 1985 659)" class="st2" d="M1556 646h858v25h-858z"/><path transform="rotate(-180 1985 1108)" class="st2" d="M1556 1096h858v24h-858z"/><path transform="rotate(-180 1985 1485)" class="st2" d="M1556 1472h858v25h-858z"/><path class="st7" d="M1767 919h214v177h-214z"/><path class="st3" d="M1660 919h214v177h-214z"/><path class="st4" d="M1981 1051h-34l3-10-3-6h34z"/><path class="st5" d="M1874 974h-34l3-10-3-6h34z"/><path class="st4" d="M1874 958h34l-3 9 3 7h-34z"/><path class="st5" d="M1660 1053h34l-3 9 3 7h-34z"/><path transform="rotate(-180 1705 943)" class="st6" d="M1674 931h62v24h-62z"/><g><path class="st2" d="M2041 919h214v177h-214z"/><path class="st3" d="M1935 919h213v177h-213z"/><path class="st4" d="M2255 1051h-34l3-10-3-6h34z"/><path class="st5" d="M2148 974h-34l3-10-3-6h34z"/><path class="st4" d="M2148 958h34l-3 9 3 7h-34z"/><path class="st5" d="M1935 1053h33l-3 9 3 7h-33zM1935 955h33l-3 10 3 7h-33z"/><path transform="rotate(-180 2077 1057)" class="st6" d="M2027 1038h100v39h-100z"/></g><g><path class="st2" d="M1796 1320h185v152h-185z"/><path class="st3" d="M1704 1320h185v152h-185z"/><path class="st4" d="M1981 1433h-29l2-8-2-6h29z"/><path class="st5" d="M1889 1367h-30l3-9-3-5h30z"/><path class="st4" d="M1889 1353h29l-3 8 3 6h-29z"/><path class="st5" d="M1704 1435h29l-2 8 2 6h-29z"/><path transform="rotate(-180 1743 1340)" class="st6" d="M1716 1330h53v21h-53z"/></g><g><path class="st2" d="M2118 1296h214v176h-214z"/><path class="st3" d="M2011 1296h214v176h-214z"/><path class="st8" d="M2331 1427h-33l3-9-3-7h33z"/><path class="st9" d="M2225 1350h-34l3-9-3-7h34z"/><path class="st8" d="M2225 1334h34l-3 9 3 7h-34z"/><path class="st9" d="M2011 1429h34l-3 10 3 6h-34z"/><path transform="rotate(-180 2056 1320)" class="st6" d="M2025 1308h62v24h-62z"/></g><g><path class="st2" d="M2108 784h163v135h-163z"/><path class="st3" d="M2027 784h163v135h-163z"/><path class="st4" d="M2271 884h-26l3-7-3-5h26z"/><path class="st5" d="M2190 826h-26l2-8-2-5h26z"/><path class="st4" d="M2190 813h26l-3 7 3 6h-26z"/><path class="st5" d="M2026 886h26l-2 7 2 5h-26z"/><path transform="rotate(-180 2061 802)" class="st6" d="M2037 793h47v18h-47z"/></g><g><path class="st2" d="M1816 784h164v135h-164z"/><path class="st3" d="M1735 784h163v135h-163z"/><path class="st4" d="M1980 884h-26l2-7-2-5h26z"/><path class="st5" d="M1898 826h-26l2-8-2-5h26z"/><path class="st4" d="M1898 813h26l-2 7 2 6h-26z"/><path class="st5" d="M1735 886h26l-3 7 3 5h-26z"/><path transform="rotate(-180 1769 802)" class="st6" d="M1745 793h47v18h-47z"/></g></g></g><path fill="#abb6c9" d="M3156 1726l-3134-4 124-257h2932z"/><path fill="#cecece" d="M146 1000h2932v465H146z"/><path class="st12" d="M371 1018h238v153H371z"/><path class="st13" d="M373 1021h234v147H373z"/><path class="st12" d="M623 1018h239v153H623z"/><path class="st13" d="M626 1021h234v147H626z"/><path class="st14" d="M784 1028h19v1h-19zM805 1028h14v1h-14zM784 1031h12v2h-12zM797 1031h12v2h-12zM784 1040h19v2h-19zM805 1040h14v2h-14zM784 1044h12v2h-12zM797 1044h12v2h-12z"/><path class="st6" d="M784 1054h19v1h-19zM805 1054h14v1h-14zM784 1058h12v1h-12zM797 1058h12v1h-12zM784 1069h19v2h-19zM805 1069h14v2h-14zM784 1073h12v2h-12zM797 1073h12v2h-12z"/><path class="st12" d="M371 1182h238v153H371z"/><path class="st13" d="M373 1185h234v147H373z"/><path class="st12" d="M623 1182h239v153H623z"/><path class="st13" d="M626 1185h234v147H626z"/><path class="st6" d="M391 1274h12v46h-12zM407 1284h12v36h-12zM423 1276h12v44h-12zM439 1266h12v54h-12zM455 1284h12v36h-12zM471 1292h12v28h-12z"/><g><path class="st6" d="M498 1274h12v46h-12zM514 1284h12v36h-12zM530 1276h12v44h-12zM546 1266h12v54h-12zM562 1284h12v36h-12zM578 1292h12v28h-12z"/></g><g><path class="st6" d="M389 1113h16v3h-16zM407 1113h17v3h-17zM426 1113h11v3h-11zM439 1113h8v3h-8zM389 1123h16v2h-16zM407 1123h17v2h-17zM426 1123h11v2h-11zM439 1123h8v2h-8z"/><g><path class="st6" d="M389 1108h24v2h-24zM416 1108h14v2h-14zM432 1108h15v2h-15z"/></g><g><path class="st6" d="M389 1118h24v3h-24zM416 1118h14v3h-14zM432 1118h15v3h-15z"/></g><g><path class="st6" d="M389 1132h16v3h-16zM407 1132h17v3h-17zM426 1132h11v3h-11zM439 1132h8v3h-8z"/></g><g><path class="st6" d="M389 1128h24v2h-24zM416 1128h14v2h-14zM432 1128h15v2h-15z"/></g><g><path class="st6" d="M389 1141h16v3h-16zM407 1141h17v3h-17zM426 1141h11v3h-11zM439 1141h8v3h-8z"/></g><g><path class="st6" d="M389 1137h24v2h-24zM416 1137h14v2h-14zM432 1137h15v2h-15z"/></g></g><g><path class="st6" d="M466 1113h16v3h-16zM484 1113h17v3h-17zM503 1113h11v3h-11zM516 1113h8v3h-8zM466 1123h16v2h-16zM484 1123h17v2h-17zM503 1123h11v2h-11zM516 1123h8v2h-8z"/><g><path class="st6" d="M466 1108h24v2h-24zM493 1108h14v2h-14zM509 1108h15v2h-15z"/></g><g><path class="st6" d="M466 1118h24v3h-24zM493 1118h14v3h-14zM509 1118h15v3h-15z"/></g><g><path class="st6" d="M466 1132h16v3h-16zM484 1132h17v3h-17zM503 1132h11v3h-11zM516 1132h8v3h-8z"/></g><g><path class="st6" d="M466 1128h24v2h-24zM493 1128h14v2h-14zM509 1128h15v2h-15z"/></g><g><path class="st6" d="M466 1141h16v3h-16zM484 1141h17v3h-17zM503 1141h11v3h-11zM516 1141h8v3h-8z"/></g><g><path class="st6" d="M466 1137h24v2h-24zM493 1137h14v2h-14zM509 1137h15v2h-15z"/></g></g><g><path class="st6" d="M536 1113h16v3h-16zM554 1113h18v3h-18zM573 1113h11v3h-11zM586 1113h8v3h-8zM536 1123h16v2h-16zM554 1123h18v2h-18zM573 1123h11v2h-11zM586 1123h8v2h-8z"/><g><path class="st6" d="M536 1108h24v2h-24zM563 1108h14v2h-14zM579 1108h15v2h-15z"/></g><g><path class="st6" d="M536 1118h24v3h-24zM563 1118h14v3h-14zM579 1118h15v3h-15z"/></g><g><path class="st6" d="M536 1132h16v3h-16zM554 1132h18v3h-18zM573 1132h11v3h-11zM586 1132h8v3h-8z"/></g><g><path class="st6" d="M536 1128h24v2h-24zM563 1128h14v2h-14zM579 1128h15v2h-15z"/></g><g><path class="st6" d="M536 1141h16v3h-16zM554 1141h18v3h-18zM573 1141h11v3h-11zM586 1141h8v3h-8z"/></g><g><path class="st6" d="M536 1137h24v2h-24zM563 1137h14v2h-14zM579 1137h15v2h-15z"/></g></g><g><path class="st6" d="M724 1031h12v2h-12zM738 1031h13v2h-13zM752 1031h8v2h-8zM762 1031h6v2h-6zM724 1038h12v2h-12zM738 1038h13v2h-13zM752 1038h8v2h-8zM762 1038h6v2h-6z"/><g><path class="st6" d="M724 1028h19v1h-19zM744 1028h11v1h-11zM757 1028h11v1h-11z"/></g><g><path class="st6" d="M724 1035h19v2h-19zM744 1035h11v2h-11zM757 1035h11v2h-11z"/></g><g><path class="st6" d="M724 1045h12v2h-12zM738 1045h13v2h-13zM752 1045h8v2h-8zM762 1045h6v2h-6z"/></g><g><path class="st6" d="M724 1042h19v2h-19zM744 1042h11v2h-11zM757 1042h11v2h-11z"/></g><g><path class="st6" d="M724 1052h12v1h-12zM738 1052h13v1h-13zM752 1052h8v1h-8zM762 1052h6v1h-6z"/></g><g><path class="st6" d="M724 1049h19v1h-19zM744 1049h11v1h-11zM757 1049h11v1h-11z"/></g></g><g><path class="st6" d="M724 1065h12v2h-12zM738 1065h13v2h-13zM752 1065h8v2h-8zM762 1065h6v2h-6zM724 1072h12v2h-12zM738 1072h13v2h-13zM752 1072h8v2h-8zM762 1072h6v2h-6z"/><g><path class="st6" d="M724 1061h19v2h-19zM744 1061h11v2h-11zM757 1061h11v2h-11z"/></g><g><path class="st6" d="M724 1069h19v1h-19zM744 1069h11v1h-11zM757 1069h11v1h-11z"/></g><g><path class="st6" d="M724 1079h12v1h-12zM738 1079h13v1h-13zM752 1079h8v1h-8zM762 1079h6v1h-6z"/></g><g><path class="st6" d="M724 1076h19v1h-19zM744 1076h11v1h-11zM757 1076h11v1h-11z"/></g><g><path class="st6" d="M724 1085h12v2h-12zM738 1085h13v2h-13zM752 1085h8v2h-8zM762 1085h6v2h-6z"/></g><g><path class="st6" d="M724 1082h19v2h-19zM744 1082h11v2h-11zM757 1082h11v2h-11z"/></g></g><g><path class="st6" d="M724 1098h12v1h-12zM738 1098h13v1h-13zM752 1098h8v1h-8zM762 1098h6v1h-6zM724 1105h12v1h-12zM738 1105h13v1h-13zM752 1105h8v1h-8zM762 1105h6v1h-6z"/><g><path class="st6" d="M724 1094h19v1h-19zM744 1094h11v1h-11zM757 1094h11v1h-11z"/></g><g><path class="st6" d="M724 1101h19v2h-19zM744 1101h11v2h-11zM757 1101h11v2h-11z"/></g><g><path class="st6" d="M724 1112h12v1h-12zM738 1112h13v1h-13zM752 1112h8v1h-8zM762 1112h6v1h-6z"/></g><g><path class="st6" d="M724 1108h19v2h-19zM744 1108h11v2h-11zM757 1108h11v2h-11z"/></g><g><path class="st6" d="M724 1118h12v2h-12zM738 1118h13v2h-13zM752 1118h8v2h-8zM762 1118h6v2h-6z"/></g><g><path class="st6" d="M724 1115h19v1h-19zM744 1115h11v1h-11zM757 1115h11v1h-11z"/></g></g><g><path class="st6" d="M802 1214h12v1h-12zM816 1214h13v1h-13zM830 1214h8v1h-8zM839 1214h7v1h-7zM802 1221h12v1h-12zM816 1221h13v1h-13zM830 1221h8v1h-8zM839 1221h7v1h-7z"/><g><path class="st6" d="M802 1210h18v1h-18zM822 1210h11v1h-11zM834 1210h12v1h-12z"/></g><g><path class="st6" d="M802 1217h18v2h-18zM822 1217h11v2h-11zM834 1217h12v2h-12z"/></g><g><path class="st6" d="M802 1228h12v1h-12zM816 1228h13v1h-13zM830 1228h8v1h-8zM839 1228h7v1h-7z"/></g><g><path class="st6" d="M802 1224h18v2h-18zM822 1224h11v2h-11zM834 1224h12v2h-12z"/></g><g><path class="st6" d="M802 1234h12v2h-12zM816 1234h13v2h-13zM830 1234h8v2h-8zM839 1234h7v2h-7z"/></g><g><path class="st6" d="M802 1231h18v1h-18zM822 1231h11v1h-11zM834 1231h12v1h-12z"/></g></g><g><path class="st6" d="M802 1266h12v2h-12zM816 1266h13v2h-13zM830 1266h8v2h-8zM839 1266h7v2h-7zM802 1273h12v2h-12zM816 1273h13v2h-13zM830 1273h8v2h-8zM839 1273h7v2h-7z"/><g><path class="st6" d="M802 1262h18v2h-18zM822 1262h11v2h-11zM834 1262h12v2h-12z"/></g><g><path class="st6" d="M802 1270h18v1h-18zM822 1270h11v1h-11zM834 1270h12v1h-12z"/></g><g><path class="st6" d="M802 1280h12v1h-12zM816 1280h13v1h-13zM830 1280h8v1h-8zM839 1280h7v1h-7z"/></g><g><path class="st6" d="M802 1277h18v1h-18zM822 1277h11v1h-11zM834 1277h12v1h-12z"/></g><g><path class="st6" d="M802 1286h12v2h-12zM816 1286h13v2h-13zM830 1286h8v2h-8zM839 1286h7v2h-7z"/></g><g><path class="st6" d="M802 1283h18v2h-18zM822 1283h11v2h-11zM834 1283h12v2h-12z"/></g></g><g><path class="st14" d="M775 1236H647s21-15 27-14c6 0 16 6 22 7 6 0 9-21 16-20 6 1 11 19 14 18 3-2 13-3 19 0 6 2 13-9 18-8 5 0 12 17 12 17zM649 1204h25v2h-25zM649 1208h25v1h-25z"/></g><g><path class="st6" d="M394 1081h183s-30-21-39-20-23 10-31 10-13-29-22-28-17 28-21 25c-4-2-18-4-27 0s-18-12-26-11c-7 0-17 24-17 24zM397 1041h35v2h-35zM397 1045h35v3h-35z"/></g><g><path class="st6" d="M594 1094H385v-66h209v66zm-208-1h207v-64H386v64z"/></g><g><path class="st6" d="M394 1244h183s-30-21-39-20-23 10-31 10c-8 1-13-29-22-28-9 2-17 28-21 25-4-2-18-3-27 0-9 4-18-11-26-11-7 1-17 24-17 24zM397 1204h35v2h-35zM397 1209h35v2h-35z"/></g><g><path class="st6" d="M594 1258H385v-67h209v67zm-208-2h207v-64H386v64z"/></g><g><path class="st15" d="M637 1029h73v89h-73z"/><path class="st14" d="M668 1068h13v2h-13zM644 1068h20v2h-20zM685 1068h17v2h-17zM644 1073h23v2h-23zM671 1073h10v2h-10zM684 1073h13v2h-13z"/><g><path class="st6" d="M668 1085h13v2h-13zM644 1085h20v2h-20zM685 1085h17v2h-17zM644 1090h23v2h-23zM671 1090h10v2h-10zM684 1090h13v2h-13z"/></g><g><path class="st14" d="M668 1035h13v1h-13zM644 1035h20v1h-20zM685 1035h17v1h-17zM644 1040h23v1h-23zM671 1040h10v1h-10zM684 1040h13v1h-13z"/></g><g><path class="st6" d="M668 1051h13v2h-13zM644 1051h20v2h-20zM685 1051h17v2h-17zM644 1056h23v2h-23zM671 1056h10v2h-10zM684 1056h13v2h-13z"/></g><g><path class="st14" d="M668 1102h13v1h-13zM644 1102h20v1h-20zM685 1102h17v1h-17zM644 1107h23v1h-23zM671 1107h10v1h-10zM684 1107h13v1h-13z"/></g></g><g><path class="st15" d="M784 1080h47v58h-47z"/><path class="st14" d="M803 1106h9v1h-9zM788 1106h13v1h-13zM814 1106h11v1h-11zM788 1109h15v1h-15zM805 1109h7v1h-7zM814 1109h8v1h-8z"/><g><path class="st6" d="M803 1116h9v1h-9zM788 1116h13v1h-13zM814 1116h11v1h-11zM788 1120h15v1h-15zM805 1120h7v1h-7zM814 1120h8v1h-8z"/></g><g><path class="st14" d="M803 1084h9v1h-9zM788 1084h13v1h-13zM814 1084h11v1h-11zM788 1087h15v1h-15zM805 1087h7v1h-7zM814 1087h8v1h-8z"/></g><g><path class="st6" d="M803 1095h9v1h-9zM788 1095h13v1h-13zM814 1095h11v1h-11zM788 1098h15v1h-15zM805 1098h7v1h-7zM814 1098h8v1h-8z"/></g><g><path class="st14" d="M803 1127h9v1h-9zM788 1127h13v1h-13zM814 1127h11v1h-11zM788 1130h15v1h-15zM805 1130h7v1h-7zM814 1130h8v1h-8z"/></g></g><g><path class="st6" d="M638 1148h71v3h-71zM638 1156h39v3h-39zM683 1156h39v3h-39zM725 1148h31v3h-31zM760 1148h23v3h-23z"/></g><g><path class="st12" d="M2506 1018h238v153h-238z"/><path class="st13" d="M2508 1021h234v147h-234z"/><path class="st12" d="M2758 1018h239v153h-239z"/><path class="st13" d="M2760 1021h234v147h-234z"/><path class="st14" d="M2919 1028h18v1h-18zM2940 1028h14v1h-14zM2919 1031h11v2h-11zM2932 1031h12v2h-12zM2919 1040h18v2h-18zM2940 1040h14v2h-14zM2919 1044h11v2h-11zM2932 1044h12v2h-12z"/><path class="st6" d="M2919 1054h18v1h-18zM2940 1054h14v1h-14zM2919 1058h11v1h-11zM2932 1058h12v1h-12zM2919 1069h18v2h-18zM2940 1069h14v2h-14zM2919 1073h11v2h-11zM2932 1073h12v2h-12z"/><path class="st12" d="M2506 1182h238v153h-238z"/><path class="st13" d="M2508 1185h234v147h-234z"/><path class="st12" d="M2758 1182h239v153h-239z"/><path class="st13" d="M2760 1185h234v147h-234z"/><path class="st6" d="M2526 1274h12v46h-12zM2542 1284h12v36h-12zM2558 1276h12v44h-12zM2574 1266h12v54h-12zM2590 1284h11v36h-11zM2606 1292h11v28h-11z"/><g><path class="st6" d="M2633 1274h12v46h-12zM2649 1284h12v36h-12zM2665 1276h12v44h-12zM2681 1266h12v54h-12zM2697 1284h12v36h-12zM2713 1292h11v28h-11z"/></g><g><path class="st6" d="M2524 1113h16v3h-16zM2542 1113h17v3h-17zM2561 1113h11v3h-11zM2574 1113h8v3h-8zM2524 1123h16v2h-16zM2542 1123h17v2h-17zM2561 1123h11v2h-11zM2574 1123h8v2h-8z"/><g><path class="st6" d="M2524 1108h24v2h-24zM2550 1108h15v2h-15zM2567 1108h15v2h-15z"/></g><g><path class="st6" d="M2524 1118h24v3h-24zM2550 1118h15v3h-15zM2567 1118h15v3h-15z"/></g><g><path class="st6" d="M2524 1132h16v3h-16zM2542 1132h17v3h-17zM2561 1132h11v3h-11zM2574 1132h8v3h-8z"/></g><g><path class="st6" d="M2524 1128h24v2h-24zM2550 1128h15v2h-15zM2567 1128h15v2h-15z"/></g><g><path class="st6" d="M2524 1141h16v3h-16zM2542 1141h17v3h-17zM2561 1141h11v3h-11zM2574 1141h8v3h-8z"/></g><g><path class="st6" d="M2524 1137h24v2h-24zM2550 1137h15v2h-15zM2567 1137h15v2h-15z"/></g></g><g><path class="st6" d="M2601 1113h16v3h-16zM2619 1113h17v3h-17zM2637 1113h12v3h-12zM2650 1113h9v3h-9zM2601 1123h16v2h-16zM2619 1123h17v2h-17zM2637 1123h12v2h-12zM2650 1123h9v2h-9z"/><g><path class="st6" d="M2601 1108h24v2h-24zM2627 1108h15v2h-15zM2643 1108h16v2h-16z"/></g><g><path class="st6" d="M2601 1118h24v3h-24zM2627 1118h15v3h-15zM2643 1118h16v3h-16z"/></g><g><path class="st6" d="M2601 1132h16v3h-16zM2619 1132h17v3h-17zM2637 1132h12v3h-12zM2650 1132h9v3h-9z"/></g><g><path class="st6" d="M2601 1128h24v2h-24zM2627 1128h15v2h-15zM2643 1128h16v2h-16z"/></g><g><path class="st6" d="M2601 1141h16v3h-16zM2619 1141h17v3h-17zM2637 1141h12v3h-12zM2650 1141h9v3h-9z"/></g><g><path class="st6" d="M2601 1137h24v2h-24zM2627 1137h15v2h-15zM2643 1137h16v2h-16z"/></g></g><g><path class="st6" d="M2671 1113h16v3h-16zM2689 1113h17v3h-17zM2708 1113h11v3h-11zM2721 1113h8v3h-8zM2671 1123h16v2h-16zM2689 1123h17v2h-17zM2708 1123h11v2h-11zM2721 1123h8v2h-8z"/><g><path class="st6" d="M2671 1108h24v2h-24zM2698 1108h14v2h-14zM2714 1108h15v2h-15z"/></g><g><path class="st6" d="M2671 1118h24v3h-24zM2698 1118h14v3h-14zM2714 1118h15v3h-15z"/></g><g><path class="st6" d="M2671 1132h16v3h-16zM2689 1132h17v3h-17zM2708 1132h11v3h-11zM2721 1132h8v3h-8z"/></g><g><path class="st6" d="M2671 1128h24v2h-24zM2698 1128h14v2h-14zM2714 1128h15v2h-15z"/></g><g><path class="st6" d="M2671 1141h16v3h-16zM2689 1141h17v3h-17zM2708 1141h11v3h-11zM2721 1141h8v3h-8z"/></g><g><path class="st6" d="M2671 1137h24v2h-24zM2698 1137h14v2h-14zM2714 1137h15v2h-15z"/></g></g><g><path class="st6" d="M2859 1031h12v2h-12zM2873 1031h13v2h-13zM2887 1031h8v2h-8zM2896 1031h7v2h-7zM2859 1038h12v2h-12zM2873 1038h13v2h-13zM2887 1038h8v2h-8zM2896 1038h7v2h-7z"/><g><path class="st6" d="M2859 1028h19v1h-19zM2879 1028h11v1h-11zM2891 1028h12v1h-12z"/></g><g><path class="st6" d="M2859 1035h19v2h-19zM2879 1035h11v2h-11zM2891 1035h12v2h-12z"/></g><g><path class="st6" d="M2859 1045h12v2h-12zM2873 1045h13v2h-13zM2887 1045h8v2h-8zM2896 1045h7v2h-7z"/></g><g><path class="st6" d="M2859 1042h19v2h-19zM2879 1042h11v2h-11zM2891 1042h12v2h-12z"/></g><g><path class="st6" d="M2859 1052h12v1h-12zM2873 1052h13v1h-13zM2887 1052h8v1h-8zM2896 1052h7v1h-7z"/></g><g><path class="st6" d="M2859 1049h19v1h-19zM2879 1049h11v1h-11zM2891 1049h12v1h-12z"/></g></g><g><path class="st6" d="M2859 1065h12v2h-12zM2873 1065h13v2h-13zM2887 1065h8v2h-8zM2896 1065h7v2h-7zM2859 1072h12v2h-12zM2873 1072h13v2h-13zM2887 1072h8v2h-8zM2896 1072h7v2h-7z"/><g><path class="st6" d="M2859 1061h19v2h-19zM2879 1061h11v2h-11zM2891 1061h12v2h-12z"/></g><g><path class="st6" d="M2859 1069h19v1h-19zM2879 1069h11v1h-11zM2891 1069h12v1h-12z"/></g><g><path class="st6" d="M2859 1079h12v1h-12zM2873 1079h13v1h-13zM2887 1079h8v1h-8zM2896 1079h7v1h-7z"/></g><g><path class="st6" d="M2859 1076h19v1h-19zM2879 1076h11v1h-11zM2891 1076h12v1h-12z"/></g><g><path class="st6" d="M2859 1085h12v2h-12zM2873 1085h13v2h-13zM2887 1085h8v2h-8zM2896 1085h7v2h-7z"/></g><g><path class="st6" d="M2859 1082h19v2h-19zM2879 1082h11v2h-11zM2891 1082h12v2h-12z"/></g></g><g><path class="st6" d="M2859 1098h12v1h-12zM2873 1098h13v1h-13zM2887 1098h8v1h-8zM2896 1098h7v1h-7zM2859 1105h12v1h-12zM2873 1105h13v1h-13zM2887 1105h8v1h-8zM2896 1105h7v1h-7z"/><g><path class="st6" d="M2859 1094h19v1h-19zM2879 1094h11v1h-11zM2891 1094h12v1h-12z"/></g><g><path class="st6" d="M2859 1101h19v2h-19zM2879 1101h11v2h-11zM2891 1101h12v2h-12z"/></g><g><path class="st6" d="M2859 1112h12v1h-12zM2873 1112h13v1h-13zM2887 1112h8v1h-8zM2896 1112h7v1h-7z"/></g><g><path class="st6" d="M2859 1108h19v2h-19zM2879 1108h11v2h-11zM2891 1108h12v2h-12z"/></g><g><path class="st6" d="M2859 1118h12v2h-12zM2873 1118h13v2h-13zM2887 1118h8v2h-8zM2896 1118h7v2h-7z"/></g><g><path class="st6" d="M2859 1115h19v1h-19zM2879 1115h11v1h-11zM2891 1115h12v1h-12z"/></g></g><g><path class="st6" d="M2937 1214h12v1h-12zM2950 1214h13v1h-13zM2964 1214h9v1h-9zM2974 1214h7v1h-7zM2937 1221h12v1h-12zM2950 1221h13v1h-13zM2964 1221h9v1h-9zM2974 1221h7v1h-7z"/><g><path class="st6" d="M2937 1210h18v1h-18zM2957 1210h10v1h-10zM2969 1210h12v1h-12z"/></g><g><path class="st6" d="M2937 1217h18v2h-18zM2957 1217h10v2h-10zM2969 1217h12v2h-12z"/></g><g><path class="st6" d="M2937 1228h12v1h-12zM2950 1228h13v1h-13zM2964 1228h9v1h-9zM2974 1228h7v1h-7z"/></g><g><path class="st6" d="M2937 1224h18v2h-18zM2957 1224h10v2h-10zM2969 1224h12v2h-12z"/></g><g><path class="st6" d="M2937 1234h12v2h-12zM2950 1234h13v2h-13zM2964 1234h9v2h-9zM2974 1234h7v2h-7z"/></g><g><path class="st6" d="M2937 1231h18v1h-18zM2957 1231h10v1h-10zM2969 1231h12v1h-12z"/></g></g><g><path class="st6" d="M2937 1266h12v2h-12zM2950 1266h13v2h-13zM2964 1266h9v2h-9zM2974 1266h7v2h-7zM2937 1273h12v2h-12zM2950 1273h13v2h-13zM2964 1273h9v2h-9zM2974 1273h7v2h-7z"/><g><path class="st6" d="M2937 1262h18v2h-18zM2957 1262h10v2h-10zM2969 1262h12v2h-12z"/></g><g><path class="st6" d="M2937 1270h18v1h-18zM2957 1270h10v1h-10zM2969 1270h12v1h-12z"/></g><g><path class="st6" d="M2937 1280h12v1h-12zM2950 1280h13v1h-13zM2964 1280h9v1h-9zM2974 1280h7v1h-7z"/></g><g><path class="st6" d="M2937 1277h18v1h-18zM2957 1277h10v1h-10zM2969 1277h12v1h-12z"/></g><g><path class="st6" d="M2937 1286h12v2h-12zM2950 1286h13v2h-13zM2964 1286h9v2h-9zM2974 1286h7v2h-7z"/></g><g><path class="st6" d="M2937 1283h18v2h-18zM2957 1283h10v2h-10zM2969 1283h12v2h-12z"/></g></g><g><path class="st14" d="M2910 1236h-128s21-15 27-14c6 0 16 6 22 7 6 0 9-21 15-20 7 1 12 19 15 18s13-3 19 0 13-9 18-8 12 17 12 17zM2784 1204h24v2h-24zM2784 1208h24v1h-24z"/></g><g><path class="st6" d="M2529 1081h182s-29-21-38-20-23 10-31 10-13-29-22-28c-10 1-17 28-21 25-5-2-19-4-27 0-9 4-19-12-26-11-7 0-17 24-17 24zM2532 1041h35v2h-35zM2532 1045h35v3h-35z"/></g><g><path class="st6" d="M2729 1094h-209v-66h209v66zm-208-1h207v-64h-207v64z"/></g><g><path class="st6" d="M2529 1244h182s-29-21-38-20-23 10-31 10c-8 1-13-29-22-28-10 2-17 28-21 25-5-2-19-3-27 0-9 4-19-11-26-11-7 1-17 24-17 24zM2532 1204h35v2h-35zM2532 1209h35v2h-35z"/></g><g><path class="st6" d="M2729 1258h-209v-67h209v67zm-208-2h207v-64h-207v64z"/></g><g><path class="st15" d="M2772 1029h73v89h-73z"/><path class="st14" d="M2803 1068h13v2h-13zM2779 1068h20v2h-20zM2819 1068h18v2h-18zM2779 1073h23v2h-23zM2805 1073h11v2h-11zM2818 1073h14v2h-14z"/><g><path class="st6" d="M2803 1085h13v2h-13zM2779 1085h20v2h-20zM2819 1085h18v2h-18zM2779 1090h23v2h-23zM2805 1090h11v2h-11zM2818 1090h14v2h-14z"/></g><g><path class="st14" d="M2803 1035h13v1h-13zM2779 1035h20v1h-20zM2819 1035h18v1h-18zM2779 1040h23v1h-23zM2805 1040h11v1h-11zM2818 1040h14v1h-14z"/></g><g><path class="st6" d="M2803 1051h13v2h-13zM2779 1051h20v2h-20zM2819 1051h18v2h-18zM2779 1056h23v2h-23zM2805 1056h11v2h-11zM2818 1056h14v2h-14z"/></g><g><path class="st14" d="M2803 1102h13v1h-13zM2779 1102h20v1h-20zM2819 1102h18v1h-18zM2779 1107h23v1h-23zM2805 1107h11v1h-11zM2818 1107h14v1h-14z"/></g></g><g><path class="st15" d="M2919 1080h46v58h-46z"/><path class="st14" d="M2938 1106h9v1h-9zM2923 1106h13v1h-13zM2949 1106h11v1h-11zM2923 1109h15v1h-15zM2940 1109h7v1h-7zM2948 1109h9v1h-9z"/><g><path class="st6" d="M2938 1116h9v1h-9zM2923 1116h13v1h-13zM2949 1116h11v1h-11zM2923 1120h15v1h-15zM2940 1120h7v1h-7zM2948 1120h9v1h-9z"/></g><g><path class="st14" d="M2938 1084h9v1h-9zM2923 1084h13v1h-13zM2949 1084h11v1h-11zM2923 1087h15v1h-15zM2940 1087h7v1h-7zM2948 1087h9v1h-9z"/></g><g><path class="st6" d="M2938 1095h9v1h-9zM2923 1095h13v1h-13zM2949 1095h11v1h-11zM2923 1098h15v1h-15zM2940 1098h7v1h-7zM2948 1098h9v1h-9z"/></g><g><path class="st14" d="M2938 1127h9v1h-9zM2923 1127h13v1h-13zM2949 1127h11v1h-11zM2923 1130h15v1h-15zM2940 1130h7v1h-7zM2948 1130h9v1h-9z"/></g></g><g><path class="st6" d="M2772 1148h72v3h-72zM2772 1156h40v3h-40zM2817 1156h40v3h-40zM2859 1148h32v3h-32zM2895 1148h22v3h-22z"/></g></g><g><path class="st12" d="M1414 1018h239v153h-239z"/><path class="st13" d="M1417 1021h234v147h-234z"/><path class="st6" d="M1434 1034h73v4h-73zM1472 1049h49v2h-49zM1432 1049h37v2h-37zM1432 1053h19v2h-19zM1454 1053h27v2h-27zM1485 1053h27v2h-27zM1472 1070h49v2h-49zM1432 1070h37v2h-37zM1432 1074h19v2h-19zM1454 1074h27v2h-27zM1485 1074h27v2h-27zM1472 1092h49v2h-49zM1432 1092h37v2h-37zM1432 1097h19v2h-19zM1454 1097h27v2h-27zM1485 1097h27v2h-27zM1472 1112h49v2h-49zM1432 1112h37v2h-37zM1432 1117h19v2h-19zM1454 1117h27v2h-27zM1485 1117h27v2h-27zM1472 1136h49v2h-49zM1432 1136h37v2h-37zM1432 1140h19v2h-19zM1454 1140h27v2h-27zM1485 1140h27v2h-27z"/><path class="st14" d="M1538 1033h19v2h-19zM1559 1033h14v2h-14zM1538 1037h12v2h-12zM1551 1037h12v2h-12zM1607 1114h18v2h-18zM1627 1114h14v2h-14zM1607 1118h11v2h-11zM1620 1118h11v2h-11zM1607 1130h18v2h-18zM1627 1130h14v2h-14zM1607 1134h11v2h-11zM1620 1134h11v2h-11z"/><g><path class="st14" d="M1607 1145h18v2h-18zM1627 1145h14v2h-14zM1607 1149h11v2h-11zM1620 1149h11v2h-11z"/></g><path class="st12" d="M1667 1018h238v153h-238z"/><path class="st13" d="M1669 1021h234v147h-234z"/><path class="st12" d="M1414 1182h239v153h-239z"/><path class="st13" d="M1417 1185h234v147h-234z"/><path class="st12" d="M1667 1182h238v153h-238z"/><path class="st13" d="M1669 1185h234v147h-234z"/><g><path class="st6" d="M1680 1224h111s-18-13-24-12c-5 1-14 6-19 6s-8-18-13-17c-6 1-10 17-13 15-3-1-11-2-16 0-6 3-12-7-16-6s-10 14-10 14zM1681 1200h22v1h-22zM1681 1203h22v1h-22z"/></g><g><path class="st6" d="M1609 1319h-177v-124h177v124zm-175-1h174v-122h-174v122z"/><path class="st14" d="M1596 1302h-157s26-18 33-17c8 1 20 8 27 9 7 0 11-26 19-25 8 2 15 24 18 22s16-3 24 0c7 3 15-10 22-10 6 1 14 21 14 21zM1442 1264h30v2h-30zM1442 1268h30v2h-30z"/><g><path class="st6" d="M1439 1240h157s-25-18-33-17c-7 1-19 8-27 8-7 1-11-25-19-24s-14 24-18 22c-3-2-15-3-23 0-7 3-16-10-22-10-6 1-15 21-15 21zM1442 1205h30v2h-30zM1442 1209h30v2h-30z"/></g></g><g><path class="st15" d="M1749 1032h59v39h-59z"/><path class="st14" d="M1771 1036h11v1h-11zM1752 1036h16v1h-16zM1784 1036h14v1h-14zM1752 1040h18v1h-18zM1773 1040h9v1h-9zM1784 1040h10v1h-10z"/><g><path class="st6" d="M1771 1048h11v1h-11zM1752 1048h16v1h-16zM1784 1048h14v1h-14zM1752 1051h18v2h-18zM1773 1051h9v2h-9zM1784 1051h10v2h-10z"/></g><g><path class="st14" d="M1771 1060h11v1h-11zM1752 1060h16v1h-16zM1784 1060h14v1h-14zM1752 1064h18v1h-18zM1773 1064h9v1h-9zM1784 1064h10v1h-10z"/></g></g><g><path class="st15" d="M1540 1113h59v39h-59z"/><path class="st14" d="M1562 1117h10v2h-10zM1543 1117h16v2h-16zM1575 1117h14v2h-14zM1543 1121h18v1h-18zM1564 1121h8v1h-8zM1574 1121h11v1h-11z"/><g><path class="st6" d="M1562 1129h10v1h-10zM1543 1129h16v1h-16zM1575 1129h14v1h-14zM1543 1133h18v1h-18zM1564 1133h8v1h-8zM1574 1133h11v1h-11z"/></g><g><path class="st14" d="M1562 1141h10v1h-10zM1543 1141h16v1h-16zM1575 1141h14v1h-14zM1543 1145h18v1h-18zM1564 1145h8v1h-8zM1574 1145h11v1h-11z"/></g></g><g><path class="st6" d="M1679 1037h13v1h-13zM1694 1037h15v1h-15zM1710 1037h9v1h-9zM1720 1037h8v1h-8zM1679 1044h13v2h-13zM1694 1044h15v2h-15zM1710 1044h9v2h-9zM1720 1044h8v2h-8z"/><g><path class="st6" d="M1679 1032h20v2h-20zM1701 1032h12v2h-12zM1715 1032h13v2h-13z"/></g><g><path class="st6" d="M1679 1041h20v1h-20zM1701 1041h12v1h-12zM1715 1041h13v1h-13z"/></g><g><path class="st6" d="M1679 1052h13v2h-13zM1694 1052h15v2h-15zM1710 1052h9v2h-9zM1720 1052h8v2h-8z"/></g><g><path class="st6" d="M1679 1048h20v2h-20zM1701 1048h12v2h-12zM1715 1048h13v2h-13z"/></g><g><path class="st6" d="M1679 1059h13v2h-13zM1694 1059h15v2h-15zM1710 1059h9v2h-9zM1720 1059h8v2h-8z"/></g><g><path class="st6" d="M1679 1056h20v1h-20zM1701 1056h12v1h-12zM1715 1056h13v1h-13z"/></g></g><g><path class="st6" d="M1679 1082h13v2h-13zM1694 1082h15v2h-15zM1710 1082h9v2h-9zM1720 1082h8v2h-8zM1679 1090h13v1h-13zM1694 1090h15v1h-15zM1710 1090h9v1h-9zM1720 1090h8v1h-8z"/><g><path class="st6" d="M1679 1078h20v1h-20zM1701 1078h12v1h-12zM1715 1078h13v1h-13z"/></g><g><path class="st6" d="M1679 1086h20v2h-20zM1701 1086h12v2h-12zM1715 1086h13v2h-13z"/></g><g><path class="st6" d="M1679 1097h13v2h-13zM1694 1097h15v2h-15zM1710 1097h9v2h-9zM1720 1097h8v2h-8z"/></g><g><path class="st6" d="M1679 1094h20v1h-20zM1701 1094h12v1h-12zM1715 1094h13v1h-13z"/></g><g><path class="st6" d="M1679 1105h13v1h-13zM1694 1105h15v1h-15zM1710 1105h9v1h-9zM1720 1105h8v1h-8z"/></g><g><path class="st6" d="M1679 1101h20v2h-20zM1701 1101h12v2h-12zM1715 1101h13v2h-13z"/></g></g><g><path class="st6" d="M1679 1125h13v2h-13zM1694 1125h15v2h-15zM1710 1125h9v2h-9zM1720 1125h8v2h-8zM1679 1133h13v2h-13zM1694 1133h15v2h-15zM1710 1133h9v2h-9zM1720 1133h8v2h-8z"/><g><path class="st6" d="M1679 1121h20v2h-20zM1701 1121h12v2h-12zM1715 1121h13v2h-13z"/></g><g><path class="st6" d="M1679 1129h20v2h-20zM1701 1129h12v2h-12zM1715 1129h13v2h-13z"/></g><g><path class="st6" d="M1679 1141h13v1h-13zM1694 1141h15v1h-15zM1710 1141h9v1h-9zM1720 1141h8v1h-8z"/></g><g><path class="st6" d="M1679 1137h20v2h-20zM1701 1137h12v2h-12zM1715 1137h13v2h-13z"/></g><g><path class="st6" d="M1679 1148h13v2h-13zM1694 1148h15v2h-15zM1710 1148h9v2h-9zM1720 1148h8v2h-8z"/></g><g><path class="st6" d="M1679 1144h20v2h-20zM1701 1144h12v2h-12zM1715 1144h13v2h-13z"/></g></g><g><path class="st6" d="M1680 1247h10v38h-10zM1693 1255h10v30h-10zM1706 1249h10v36h-10zM1719 1240h10v45h-10zM1732 1255h10v30h-10zM1745 1262h10v23h-10z"/></g><g><path class="st6" d="M1802 1269h11v53h-11zM1817 1281h11v41h-11zM1832 1279h11v43h-11zM1847 1290h11v32h-11zM1862 1287h11v35h-11zM1877 1295h11v27h-11z"/></g><g><path class="st6" d="M1539 1047h12v59h-12zM1556 1060h12v45h-12zM1573 1058h12v48h-12zM1590 1069h12v36h-12zM1607 1067h12v38h-12zM1624 1075h13v30h-13z"/></g><g><path class="st15" d="M1743 1292h46v30h-46z"/><path class="st14" d="M1760 1295h8v1h-8z"/><path class="st16" d="M1746 1295h12v1h-12z"/><path class="st14" d="M1770 1295h11v1h-11z"/><path class="st16" d="M1746 1298h14v1h-14z"/><path class="st14" d="M1762 1298h6v1h-6zM1770 1298h8v1h-8z"/><g><path class="st6" d="M1760 1304h8v1h-8zM1746 1304h12v1h-12zM1770 1304h11v1h-11zM1746 1307h14v1h-14zM1762 1307h6v1h-6zM1770 1307h8v1h-8z"/></g><g><path class="st14" d="M1760 1314h8v1h-8zM1746 1314h12v1h-12zM1770 1314h11v1h-11zM1746 1316h14v1h-14zM1762 1316h6v1h-6zM1770 1316h8v1h-8z"/></g></g><g><path class="st6" d="M1681 1297h13v2h-13zM1696 1297h15v2h-15zM1712 1297h9v2h-9zM1723 1297h7v2h-7zM1681 1305h13v2h-13zM1696 1305h15v2h-15zM1712 1305h9v2h-9zM1723 1305h7v2h-7z"/><g><path class="st6" d="M1681 1293h20v2h-20zM1703 1293h12v2h-12zM1717 1293h13v2h-13z"/></g><g><path class="st6" d="M1681 1301h20v2h-20zM1703 1301h12v2h-12zM1717 1301h13v2h-13z"/></g><g><path class="st6" d="M1681 1313h13v2h-13zM1696 1313h15v2h-15zM1712 1313h9v2h-9zM1723 1313h7v2h-7z"/></g><g><path class="st6" d="M1681 1309h20v2h-20zM1703 1309h12v2h-12zM1717 1309h13v2h-13z"/></g><g><path class="st6" d="M1681 1320h13v2h-13zM1696 1320h15v2h-15zM1712 1320h9v2h-9zM1723 1320h7v2h-7z"/></g><g><path class="st6" d="M1681 1316h20v2h-20zM1703 1316h12v2h-12zM1717 1316h13v2h-13z"/></g></g><g><path class="st6" d="M1804 1236h13v2h-13zM1818 1236h15v2h-15zM1834 1236h9v2h-9zM1845 1236h7v2h-7zM1804 1244h13v2h-13zM1818 1244h15v2h-15zM1834 1244h9v2h-9zM1845 1244h7v2h-7z"/><g><path class="st6" d="M1804 1232h20v2h-20zM1826 1232h11v2h-11zM1839 1232h13v2h-13z"/></g><g><path class="st6" d="M1804 1240h20v2h-20zM1826 1240h11v2h-11zM1839 1240h13v2h-13z"/></g><g><path class="st6" d="M1804 1252h13v1h-13zM1818 1252h15v1h-15zM1834 1252h9v1h-9zM1845 1252h7v1h-7z"/></g><g><path class="st6" d="M1804 1248h20v2h-20zM1826 1248h11v2h-11zM1839 1248h13v2h-13z"/></g><g><path class="st6" d="M1804 1259h13v2h-13zM1818 1259h15v2h-15zM1834 1259h9v2h-9zM1845 1259h7v2h-7z"/></g><g><path class="st6" d="M1804 1255h20v2h-20zM1826 1255h11v2h-11zM1839 1255h13v2h-13z"/></g></g><g><path class="st6" d="M1804 1199h13v2h-13zM1818 1199h15v2h-15zM1834 1199h9v2h-9zM1845 1199h7v2h-7zM1804 1207h13v2h-13zM1818 1207h15v2h-15zM1834 1207h9v2h-9zM1845 1207h7v2h-7z"/><g><path class="st6" d="M1804 1195h20v2h-20zM1826 1195h11v2h-11zM1839 1195h13v2h-13z"/></g><g><path class="st6" d="M1804 1203h20v2h-20zM1826 1203h11v2h-11zM1839 1203h13v2h-13z"/></g><g><path class="st6" d="M1804 1215h13v1h-13zM1818 1215h15v1h-15zM1834 1215h9v1h-9zM1845 1215h7v1h-7z"/></g><g><path class="st6" d="M1804 1211h20v2h-20zM1826 1211h11v2h-11zM1839 1211h13v2h-13z"/></g><g><path class="st6" d="M1804 1222h13v2h-13zM1818 1222h15v2h-15zM1834 1222h9v2h-9zM1845 1222h7v2h-7z"/></g><g><path class="st6" d="M1804 1218h20v2h-20zM1826 1218h11v2h-11zM1839 1218h13v2h-13z"/></g></g><path class="st6" d="M1752 1089h137v64h-137z"/><g><path class="st14" d="M1759 1095h21v2h-21zM1783 1095h16v2h-16zM1759 1099h13v2h-13zM1774 1099h13v2h-13z"/></g><g><path class="st15" d="M1759 1108h21v2h-21zM1783 1108h16v2h-16zM1759 1113h13v2h-13zM1774 1113h13v2h-13z"/></g><g><path class="st13" d="M1759 1123h21v2h-21zM1783 1123h16v2h-16zM1759 1127h13v2h-13zM1774 1127h13v2h-13z"/></g><g><path class="st13" d="M1759 1138h21v2h-21zM1783 1138h16v2h-16zM1759 1142h13v2h-13zM1774 1142h13v2h-13z"/></g><g><path class="st14" d="M1815 1095h21v2h-21zM1839 1095h16v2h-16zM1815 1099h13v2h-13zM1830 1099h13v2h-13z"/></g><g><path class="st15" d="M1815 1108h21v2h-21zM1839 1108h16v2h-16zM1815 1113h13v2h-13zM1830 1113h13v2h-13z"/></g><g><path class="st13" d="M1815 1123h21v2h-21zM1839 1123h16v2h-16zM1815 1127h13v2h-13zM1830 1127h13v2h-13z"/></g><g><path class="st13" d="M1815 1138h21v2h-21zM1839 1138h16v2h-16zM1815 1142h13v2h-13zM1830 1142h13v2h-13z"/></g><g><path class="st14" d="M1830 1034h18v1h-18zM1850 1034h14v1h-14zM1830 1037h11v2h-11zM1843 1037h11v2h-11z"/></g><g><path class="st14" d="M1830 1047h18v2h-18zM1850 1047h14v2h-14zM1830 1051h11v2h-11zM1843 1051h11v2h-11z"/></g><g><path class="st14" d="M1830 1062h18v2h-18zM1850 1062h14v2h-14zM1830 1066h11v2h-11zM1843 1066h11v2h-11z"/></g></g><g><path class="st17" d="M1041 1391h335v73h-335z"/><path class="st14" d="M1057 1406a6 6 0 1112 0 6 6 0 01-12 0z"/><path class="st6" d="M1079 1406a6 6 0 1112 0 6 6 0 01-12 0z"/><path class="st14" d="M1131 1406a6 6 0 1111 0 6 6 0 01-11 0zM1103 1406a6 6 0 1112 0 6 6 0 01-12 0z"/><path class="st17" d="M1041 1317h335v74h-335zM1041 1242h335v74h-335z"/><path class="st14" d="M1057 1332a6 6 0 1112 0 6 6 0 01-12 0zM1079 1332a6 6 0 1112 0 6 6 0 01-12 0z"/><path class="st6" d="M1131 1332a6 6 0 1111 0 6 6 0 01-11 0z"/><path class="st14" d="M1103 1332a6 6 0 1112 0 6 6 0 01-12 0z"/><path class="st6" d="M1057 1258a6 6 0 1112 0 6 6 0 01-12 0zM1079 1258a6 6 0 1112 0 6 6 0 01-12 0zM1131 1258a6 6 0 1111 0 6 6 0 01-11 0zM1103 1258a6 6 0 1112 0 6 6 0 01-12 0z"/><path class="st18" d="M1041 1386h335v1h-335zM1041 1316h335v1h-335zM1041 1242h335v1h-335z"/><g><path class="st17" d="M1041 1167h335v75h-335z"/><path class="st6" d="M1057 1184a6 6 0 1112 0 6 6 0 01-12 0zM1079 1184a6 6 0 1112 0 6 6 0 01-12 0zM1131 1184a6 6 0 1111 0 6 6 0 01-11 0z"/><path class="st14" d="M1103 1184a6 6 0 1112 0 6 6 0 01-12 0z"/><path class="st17" d="M1041 1094h335v73h-335zM1041 1021h335v73h-335z"/><path class="st14" d="M1057 1110a6 6 0 1112 0 6 6 0 01-12 0zM1079 1110a6 6 0 1112 0 6 6 0 01-12 0z"/><path class="st6" d="M1131 1110a6 6 0 1111 0 6 6 0 01-11 0z"/><path class="st14" d="M1103 1110a6 6 0 1112 0 6 6 0 01-12 0z"/><g><path class="st6" d="M1057 1036a6 6 0 1112 0 6 6 0 01-12 0zM1079 1036a6 6 0 1112 0 6 6 0 01-12 0zM1131 1036a6 6 0 1111 0 6 6 0 01-11 0zM1103 1036a6 6 0 1112 0 6 6 0 01-12 0z"/></g><path class="st18" d="M1041 1165h335-335zM1041 1094h335v1h-335z"/></g></g><g><path class="st17" d="M2203 1412h237v52h-237z"/><path class="st14" d="M2215 1423a4 4 0 118 0 4 4 0 01-8 0z"/><path class="st6" d="M2230 1423a4 4 0 118 0 4 4 0 01-8 0z"/><path class="st14" d="M2266 1423a4 4 0 119 0 4 4 0 01-9 0zM2247 1423a4 4 0 118 0 4 4 0 01-8 0z"/><path class="st17" d="M2203 1360h237v52h-237zM2203 1307h237v52h-237z"/><path class="st14" d="M2215 1371a4 4 0 118 0 4 4 0 01-8 0zM2230 1371a4 4 0 118 0 4 4 0 01-8 0z"/><path class="st6" d="M2266 1371a4 4 0 119 0 4 4 0 01-9 0z"/><path class="st14" d="M2247 1371a4 4 0 118 0 4 4 0 01-8 0z"/><path class="st6" d="M2215 1318a4 4 0 118 0 4 4 0 01-8 0zM2230 1318a4 4 0 118 0 4 4 0 01-8 0zM2266 1318a4 4 0 119 0 4 4 0 01-9 0zM2247 1318a4 4 0 118 0 4 4 0 01-8 0z"/><path class="st18" d="M2203 1409h237v1h-237zM2203 1359h237v1h-237zM2203 1307h237v1h-237z"/><g><path class="st17" d="M2203 1254h237v53h-237z"/><path class="st6" d="M2215 1266a4 4 0 118 0 4 4 0 01-8 0zM2230 1266a4 4 0 118 0 4 4 0 01-8 0zM2266 1266a4 4 0 119 0 4 4 0 01-9 0z"/><path class="st14" d="M2247 1266a4 4 0 118 0 4 4 0 01-8 0z"/><path class="st17" d="M2203 1202h237v52h-237z"/><path class="st17" d="M2203 1151h237v52h-237z"/><circle class="st14" cx="2218.9" cy="1213.9" r="4.2"/><path class="st14" d="M2230 1214a4 4 0 118 0 4 4 0 01-8 0z"/><path class="st6" d="M2266 1214a4 4 0 119 0 4 4 0 01-9 0z"/><circle class="st14" cx="2251" cy="1213.9" r="4.2"/><g><path class="st6" d="M2215 1162a4 4 0 118 0 4 4 0 01-8 0zM2230 1162a4 4 0 118 0 4 4 0 01-8 0zM2266 1162a4 4 0 119 0 4 4 0 01-9 0zM2247 1162a4 4 0 118 0 4 4 0 01-8 0z"/></g><path class="st18" d="M2203 1252h237v1h-237zM2203 1203h237-237z"/></g></g><g><path class="st17" d="M1941 1412h238v52h-238z"/><path class="st14" d="M1953 1423a4 4 0 119 0 4 4 0 01-9 0z"/><path class="st6" d="M1969 1423a4 4 0 118 0 4 4 0 01-8 0z"/><path class="st14" d="M2005 1423a4 4 0 118 0 4 4 0 01-8 0zM1985 1423a4 4 0 119 0 4 4 0 01-9 0z"/><path class="st17" d="M1941 1360h238v52h-238zM1941 1307h238v52h-238z"/><path class="st14" d="M1953 1370a4 4 0 119 0 4 4 0 01-9 0zM1969 1370a4 4 0 118 0 4 4 0 01-8 0z"/><path class="st6" d="M2005 1370a4 4 0 118 0 4 4 0 01-8 0z"/><path class="st14" d="M1985 1370a4 4 0 119 0 4 4 0 01-9 0z"/><path class="st6" d="M1953 1318a4 4 0 119 0 4 4 0 01-9 0zM1969 1318a4 4 0 118 0 4 4 0 01-8 0zM2005 1318a4 4 0 118 0 4 4 0 01-8 0zM1985 1318a4 4 0 119 0 4 4 0 01-9 0z"/><path class="st18" d="M1941 1409h238-238zM1941 1359h238-238zM1941 1307h238-238z"/><g><path class="st17" d="M1941 1254h238v53h-238z"/><path class="st6" d="M1953 1266a4 4 0 119 0 4 4 0 01-9 0zM1969 1266a4 4 0 118 0 4 4 0 01-8 0zM2005 1266a4 4 0 118 0 4 4 0 01-8 0z"/><path class="st14" d="M1985 1266a4 4 0 119 0 4 4 0 01-9 0z"/><path class="st17" d="M1941 1202h238v52h-238zM1941 1150h238v52h-238z"/><path class="st14" d="M1953 1213a4 4 0 119 0 4 4 0 01-9 0zM1969 1213a4 4 0 118 0 4 4 0 01-8 0z"/><circle class="st6" cx="2009.2" cy="1213.4" r="4.2"/><path class="st14" d="M1985 1213a4 4 0 119 0 4 4 0 01-9 0z"/><g><path class="st6" d="M1953 1161a4 4 0 119 0 4 4 0 01-9 0zM1969 1161a4 4 0 118 0 4 4 0 01-8 0zM2005 1161a4 4 0 118 0 4 4 0 01-8 0zM1985 1161a4 4 0 119 0 4 4 0 01-9 0z"/></g><path class="st18" d="M1941 1252h238-238zM1941 1202h238v1h-238z"/></g></g><g><path class="st19" d="M188 1474h-6c-4 0-8-4-8-8v-116c0-4 4-8 8-8h6c4 0 8 4 8 8v116c0 4-4 8-8 8z"/><path class="st14" d="M296 1455H174v8c0 7 3 13 7 13h115c3 0 6-4 6-9v-3c0-5-3-9-6-9z"/><path class="st20" d="M353 1548s-1 23 3 23h45s0-6-7-8c-8-1-22-7-27-17-4-10-14 2-14 2z"/><path class="st21" d="M201 1426s1 22 5 29h89s22 2 24 4c2 1-9 20 33 90h20s-21-115-25-118c-6-4-72-19-83-20-12 0-63 15-63 15z"/><path class="st22" d="M256 1305c7 4 7 13 7 13-17 4-41-15-41-15s10-7 15-23a45 45 0 001-11l8 7 13 11-2 13-1 5z"/><path class="st6" d="M265 1393l1 10 1 3v6c0 5 2 6 1 9l-11 5-11 4h-1c-17 4-34 5-39 5-10 0-12-24-8-55 5-47 13-70 32-87 1-1 1 3 7 6s14 3 19 2l5 5c9 14 10 31 9 45l-4 35-1 7z"/><path d="M259 1287l-1 8c-15-4-19-12-21-17-1-1 5-2 9-2l13 11z" fill="#ed975d"/><path class="st22" d="M265 1287s-27 4-29-13c-3-17-8-28 10-31 17-4 21 2 24 8 2 6 2 35-5 36z"/><path transform="rotate(-163 424 1370)" class="st15" d="M423 1341h2v58h-2z"/><path transform="scale(-1) rotate(1 268365 -74292)" class="st15" d="M356 1394h61v3h-61z"/><path d="M227 1243l-2-1h2c0-2 1-5 4-5l-2 2c3-3 10-5 29-4 25 2 16 18 13 20s-11-3-17-3c-6 1-7 9-9 10-2 2-1-1-4-2s-3 3-2 6c0 3-3 7-3 7l-4-4c-4-4-7-21-6-25l1-1z" fill="#2c3a64"/><path d="M267 1406v6c-39-9-41-63-41-64l39 35 1 3-1 7 1 10 1 3z" fill="#8095aa"/><path class="st22" d="M325 1395h5c3-2 12-6 14-5l8 4 4 4c-1 1-4-1-6-1-1 0-13 6-16 6h-9v-8z"/><path class="st22" d="M345 1396s5 5 8 3l-4-3h-4zM330 1395l5-5h1l-1 3-5 2z"/><path class="st6" d="M258 1314c-20-12-44 9-34 30 12 25 31 55 46 57 11 2 42 6 56 3 0 0 6 0 3-10 0 0-43-12-50-21-4-5-11-15-21-59z"/><path class="st21" d="M234 1476h9v101h-9z"/><path class="st21" d="M209 1573h59v4h-59z"/><path class="st21" d="M208 1582a5 5 0 1110 0 5 5 0 01-10 0zM256 1582a5 5 0 1110 0 5 5 0 01-10 0z"/></g><g><path transform="matrix(1 .0044 -.0044 1 1 -7)" class="st15" d="M83 302h2995v10H83z"/></g><g><path class="st15" d="M225 438h744v376H225z"/><path class="st13" d="M233 448h728v356H233z"/><path class="st15" d="M311 305h11v133h-11zM872 305h10v133h-10z"/><path class="st6" d="M256 701h20v79h-20zM283 719h19v61h-19zM310 706h19v74h-19zM336 688h20v92h-20zM363 719h20v61h-20zM390 733h19v47h-19zM708 732h28v4h-28zM739 732h30v4h-30zM771 732h20v4h-20zM794 732h14v4h-14zM708 748h28v4h-28zM739 748h30v4h-30zM771 748h20v4h-20zM794 748h14v4h-14z"/><g><path class="st6" d="M708 723h42v4h-42zM754 723h24v4h-24zM782 723h27v4h-27z"/></g><g><path class="st6" d="M708 740h42v4h-42zM754 740h24v4h-24zM782 740h27v4h-27z"/></g><g><path class="st6" d="M708 764h28v4h-28zM739 764h30v4h-30zM771 764h20v4h-20zM794 764h14v4h-14z"/></g><g><path class="st6" d="M708 756h42v4h-42zM754 756h24v4h-24zM782 756h27v4h-27z"/></g><g><path class="st6" d="M708 779h28v4h-28zM739 779h30v4h-30zM771 779h20v4h-20zM794 779h14v4h-14z"/></g><g><path class="st6" d="M708 771h42v4h-42zM754 771h24v4h-24zM782 771h27v4h-27z"/></g><g><path class="st6" d="M454 746h20v2h-20zM476 746h22v2h-22zM500 746h14v2h-14zM516 746h11v2h-11zM454 757h20v3h-20zM476 757h22v3h-22zM500 757h14v3h-14zM516 757h11v3h-11z"/><g><path class="st6" d="M454 739h30v3h-30zM487 739h18v3h-18zM508 739h19v3h-19z"/></g><g><path class="st6" d="M454 752h30v2h-30zM487 752h18v2h-18zM508 752h19v2h-19z"/></g><g><path class="st6" d="M454 769h20v3h-20zM476 769h22v3h-22zM500 769h14v3h-14zM516 769h11v3h-11z"/></g><g><path class="st6" d="M454 763h30v3h-30zM487 763h18v3h-18zM508 763h19v3h-19z"/></g><g><path class="st6" d="M454 780h20v3h-20zM476 780h22v3h-22zM500 780h14v3h-14zM516 780h11v3h-11z"/></g><g><path class="st6" d="M454 774h30v3h-30zM487 774h18v3h-18zM508 774h19v3h-19z"/></g></g><g><path class="st6" d="M454 689h20v2h-20zM476 689h22v2h-22zM500 689h14v2h-14zM516 689h11v2h-11zM454 700h20v3h-20zM476 700h22v3h-22zM500 700h14v3h-14zM516 700h11v3h-11z"/><g><path class="st6" d="M454 682h30v3h-30zM487 682h18v3h-18zM508 682h19v3h-19z"/></g><g><path class="st6" d="M454 695h30v2h-30zM487 695h18v2h-18zM508 695h19v2h-19z"/></g><g><path class="st6" d="M454 712h20v3h-20zM476 712h22v3h-22zM500 712h14v3h-14zM516 712h11v3h-11z"/></g><g><path class="st6" d="M454 706h30v3h-30zM487 706h18v3h-18zM508 706h19v3h-19z"/></g><g><path class="st6" d="M454 723h20v3h-20zM476 723h22v3h-22zM500 723h14v3h-14zM516 723h11v3h-11z"/></g><g><path class="st6" d="M454 717h30v3h-30zM487 717h18v3h-18zM508 717h19v3h-19z"/></g></g><g><path class="st6" d="M833 732h27v4h-27zM864 732h30v4h-30zM896 732h19v4h-19zM918 732h15v4h-15zM833 748h27v4h-27zM864 748h30v4h-30zM896 748h19v4h-19zM918 748h15v4h-15z"/><g><path class="st6" d="M833 723h42v4h-42zM879 723h24v4h-24zM906 723h27v4h-27z"/></g><g><path class="st6" d="M833 740h42v4h-42zM879 740h24v4h-24zM906 740h27v4h-27z"/></g><g><path class="st6" d="M833 764h27v4h-27zM864 764h30v4h-30zM896 764h19v4h-19zM918 764h15v4h-15z"/></g><g><path class="st6" d="M833 756h42v4h-42zM879 756h24v4h-24zM906 756h27v4h-27z"/></g><g><path class="st6" d="M833 779h27v4h-27zM864 779h30v4h-30zM896 779h19v4h-19zM918 779h15v4h-15z"/></g><g><path class="st6" d="M833 771h42v4h-42zM879 771h24v4h-24zM906 771h27v4h-27z"/></g></g><g><path class="st14" d="M940 535H726s34-24 45-23c10 1 27 11 37 12 9 0 15-35 26-34 11 2 19 33 24 30s22-4 32 0c10 5 22-14 30-13 9 0 20 28 20 28zM729 483h41v3h-41zM729 489h41v2h-41z"/></g><g><path class="st15" d="M940 630H726s35-20 45-23c16-5 29 9 37 11 9 3 6-17 21-17 11 0 24 17 29 14s22-4 32 0 22-14 30-13c9 0 20 28 20 28zM729 578h41v2h-41zM729 583h41v3h-41z"/></g><g><path class="st6" d="M273 577h370s-59-43-78-41-46 20-63 21c-17 0-26-60-45-57-19 2-34 56-42 51-9-5-38-8-55 0-18 7-38-24-52-23-15 1-35 49-35 49zM279 495h71v4h-71zM279 505h71v4h-71z"/></g><g><path class="st6" d="M679 604H255V468h424v136zm-422-3h419V471H257v130z"/></g><g><path class="st15" d="M564 630h122v150H564z"/><path class="st14" d="M615 696h23v3h-23zM575 696h33v3h-33zM643 696h29v3h-29zM575 705h38v3h-38zM619 705h19v3h-19zM641 705h23v3h-23z"/><g><path class="st6" d="M615 724h23v3h-23zM575 724h33v3h-33zM643 724h29v3h-29zM575 733h38v3h-38zM619 733h19v3h-19zM641 733h23v3h-23z"/></g><g><path class="st14" d="M615 640h23v3h-23zM575 640h33v3h-33zM643 640h29v3h-29zM575 648h38v3h-38zM619 648h19v3h-19zM641 648h23v3h-23z"/></g><g><path class="st6" d="M615 668h23v3h-23zM575 668h33v3h-33zM643 668h29v3h-29zM575 677h38v2h-38zM619 677h19v2h-19zM641 677h23v2h-23z"/></g><g><path class="st14" d="M615 753h23v2h-23zM575 753h33v2h-33zM643 753h29v2h-29zM575 761h38v3h-38zM619 761h19v3h-19zM641 761h23v3h-23z"/></g></g><g><path class="st6" d="M255 623h120v5H255zM255 636h66v5h-66zM330 636h66v5h-66zM400 623h54v4h-54zM460 623h38v4h-38z"/></g><g><path class="st6" d="M708 680h99v4h-99zM708 691h55v4h-55zM770 691h55v4h-55zM828 680h44v4h-44zM877 680h31v4h-31z"/></g></g><g><path class="st20" d="M2323 1230s-32 34-34 46c-1 13 16 32 16 32l18-78zM2337 1576s1 18 5 18h39s0-5-7-6c-6-1-16-6-20-14-4-9-17 2-17 2zM2289 1576s1 18 5 18h39s0-5-7-6c-6-1-17-6-20-14-4-9-17 2-17 2z"/><path class="st20" d="M2361 1386s-6 36-27 100-23 92-23 92h-23s0-71 9-103c10-32 2-116 2-116l62 27z"/><path class="st15" d="M2372 1361s1 54-9 121c-9 67-6 95-6 95l-22 1s-14-67-10-100c4-34-19-115-19-115l66-2z"/><path class="st22" d="M2328 1233l12 8 17-3-2-13-2-9-16-7-6-3v6c1 13-3 21-3 21z"/><path class="st20" d="M2353 1229c-1 0-21-6-23-5-3 1-4 5-4 5l34 7c0 1-3-5-7-7z"/><path class="st26" d="M2298 1368c3 15 61 17 76 3 2-2 2-10 1-20-1-20-5-50-5-66a180 180 0 00-10-49c0 1-29-9-34-7-25 8-32 123-28 139z"/><path class="st20" d="M2376 1351c-2-20-6-50-6-66l-3-22-17-3s-16 68 26 91z"/><path class="st22" d="M2366 1323s-1 3 1 5 4 5 4 7-6 6-8 5-6-4-5-5c0-1-3-10 2-13 4-4 6 1 6 1z"/><path class="st26" d="M2347 1232s16 4 30 23c13 20 22 34 19 41-2 7-24 32-28 32s-10-3-11-9c0 0 16-24 13-27-1-2-20-17-23-10-5 11 0-50 0-50z"/><path class="st27" d="M2332 1212c4 6 17 12 23 13l-2-9-16-7c-4 0-6 1-5 3z"/><path class="st22" d="M2359 1215s-26 8-31-8-11-26 5-32 22-1 25 4 8 34 1 36z"/><path class="st20" d="M2357 1178s-2 19-6 18-8-2-7 4 6 13-6 14-30-31-26-37c9-17 58-20 45 1z"/></g><g><path class="st19" d="M974 1245s31 31 32 43-15 30-15 30l-17-73z"/><path class="st20" d="M961 1569s-1 17-5 17h-36s0-5 6-6 16-5 19-13c4-8 16 2 16 2zM1006 1569s-1 17-4 17h-37s0-5 6-6 16-5 19-13c4-8 16 2 16 2z"/><path class="st20" d="M939 1391s5 34 25 94c19 60 22 86 22 86l21-1s0-65-9-96c-9-30-1-109-1-109l-58 26z"/><path class="st15" d="M928 1367s0 51 8 114c9 62 6 89 6 89l21 1s13-63 9-94c-3-32 18-108 18-108l-62-2z"/><path class="st22" d="M970 1248l-12 7-16-3 2-12h1l1-8 15-7 6-2v5c-2 12 3 20 3 20z"/><path class="st19" d="M946 1244c1 0 20-6 22-5s3 5 3 5l-31 7s2-5 6-7z"/><path class="st14" d="M998 1374c-3 14-58 16-72 3l-1-19c1-19 5-47 5-62 1-7 1-14 3-20l7-25s26-9 31-7c24 7 30 115 27 130z"/><path class="st19" d="M925 1358c1-19 5-47 5-62 1-7 1-14 3-20l16-3s15 64-24 85z"/><path class="st22" d="M934 1332s1 2-1 4-4 5-4 7c1 2 6 5 8 5l5-5c-1-1 2-9-2-12-4-4-6 1-6 1z"/><path class="st14" d="M952 1247s-16 3-28 21c-13 18-21 32-18 39 2 6 23 29 26 29 4 0 10-2 10-8 0 0-15-22-12-26 1-1 19-15 22-9 4 11 0-46 0-46z"/><path class="st27" d="M965 1228c-3 6-15 11-21 12h1l1-8 15-7c4 0 6 1 4 3z"/><path class="st22" d="M940 1231s25 8 29-8c5-15 11-24-4-30-16-6-20-1-23 4s-8 31-2 34z"/><path class="st20" d="M943 1196s1 18 5 17 7-2 6 4c0 5-5 11 6 12s28-28 25-34c-9-16-55-19-42 1z"/></g><g><path class="st20" d="M864 1569l-2-2-9-57-15-81-4-23h10l2 13 13 93 7 55-2 2z"/><path class="st20" d="M846 1419c-6 3-8 10-8 10l-4-23h10l2 13zM347 1569l2-2 10-57 14-81 4-23h-10l-2 13-12 93-8 55 2 2z"/><path class="st20" d="M365 1419c7 3 8 10 8 10l4-23h-10l-2 13z"/><path class="st20" d="M868 1415H325a9 9 0 110-18h543c5 1 9 5 9 9 0 5-4 9-9 9z"/></g><g><path class="st20" d="M1892 1569l-2-2-10-57-15-81-4-23h11l1 13 13 93 7 55-1 2z"/><path class="st20" d="M1873 1419c-6 3-8 10-8 10l-4-23h11l1 13zM1374 1569l2-2 10-57 14-81 4-23h-10l-2 13-12 93-7 55c-1 1 0 2 1 2z"/><path class="st20" d="M1392 1419c7 3 8 10 8 10l4-23h-10l-2 13z"/><path class="st20" d="M1896 1415h-544c-4 0-8-4-8-9 0-4 4-8 8-8h544c5 0 9 4 9 8 0 5-4 9-9 9z"/></g><g><path class="st15" d="M1126 468h885v447h-885z"/><path class="st13" d="M1135 480h866v423h-866z"/><path class="st15" d="M1229 310h12v158h-12zM1895 310h13v158h-13z"/><path class="st6" d="M1969 799h-417V506h417v293zm-414-3h411V509h-411v287z"/><path class="st14" d="M1939 759h-370s59-43 78-41 46 20 63 20 26-60 45-57 34 57 42 51c9-5 38-7 55 0 18 8 38-24 52-23 15 1 35 50 35 50zM1575 668h70v5h-70zM1575 678h70v4h-70zM1569 612h370s-60-43-78-40c-18 2-47 19-63 20s-26-60-45-57-34 56-43 51-37-8-55 0c-17 7-37-24-52-23-14 1-34 49-34 49z"/><path class="st6" d="M1575 530h70v5h-70zM1575 540h70v4h-70z"/><g><path class="st6" d="M1556 819h149v5h-149zM1556 838h102v6h-102zM1556 858h115v6h-115zM1689 858h102v6h-102zM1674 838h102v6h-102zM1794 838h64v6h-64zM1723 819h101v5h-101zM1838 819h76v5h-76z"/></g><g><path class="st6" d="M1175 791h19v79h-19zM1201 809h20v61h-20zM1228 796h20v74h-20zM1255 778h19v92h-19zM1282 809h19v61h-19zM1308 823h20v47h-20z"/></g><g><path class="st6" d="M1366 778h20v92h-20zM1393 799h20v71h-20zM1420 796h19v74h-19zM1447 813h19v57h-19zM1473 809h20v61h-20zM1500 823h20v47h-20z"/></g><g><path class="st6" d="M1171 506h77v8h-77zM1171 526h60v7h-60zM1243 526h82v7h-82zM1334 526h50v7h-50zM1263 506h59v8h-59zM1333 506h83v8h-83z"/></g><g><path class="st15" d="M1171 572h122v80h-122z"/><path class="st14" d="M1216 580h23v3h-23zM1178 580h32v3h-32zM1244 580h28v3h-28zM1178 588h37v3h-37zM1221 588h18v3h-18zM1242 588h22v3h-22z"/><g><path class="st6" d="M1216 604h23v3h-23zM1178 604h32v3h-32zM1244 604h28v3h-28zM1178 612h37v3h-37zM1221 612h18v3h-18zM1242 612h22v3h-22z"/></g><g><path class="st14" d="M1216 629h23v3h-23zM1178 629h32v3h-32zM1244 629h28v3h-28zM1178 637h37v3h-37zM1221 637h18v3h-18zM1242 637h22v3h-22z"/></g></g><g><path class="st15" d="M1323 572h122v80h-122z"/><path class="st6" d="M1370 580h22v3h-22zM1331 580h33v3h-33zM1398 580h28v3h-28zM1331 588h38v3h-38zM1375 588h17v3h-17zM1396 588h22v3h-22z"/><g><path class="st14" d="M1370 604h22v3h-22zM1331 604h33v3h-33zM1398 604h28v3h-28zM1331 612h38v3h-38zM1375 612h17v3h-17zM1396 612h22v3h-22z"/></g><g><path class="st6" d="M1370 629h22v3h-22zM1331 629h33v3h-33zM1398 629h28v3h-28zM1331 637h38v3h-38zM1375 637h17v3h-17zM1396 637h22v3h-22z"/></g></g><g><path class="st6" d="M1171 682h28v4h-28zM1202 682h30v4h-30zM1234 682h20v4h-20zM1257 682h14v4h-14zM1171 698h28v4h-28zM1202 698h30v4h-30zM1234 698h20v4h-20zM1257 698h14v4h-14z"/><g><path class="st6" d="M1171 674h42v3h-42zM1217 674h24v3h-24zM1245 674h26v3h-26z"/></g><g><path class="st6" d="M1171 691h42v3h-42zM1217 691h24v3h-24zM1245 691h26v3h-26z"/></g><g><path class="st6" d="M1171 714h28v4h-28zM1202 714h30v4h-30zM1234 714h20v4h-20zM1257 714h14v4h-14z"/></g><g><path class="st6" d="M1171 707h42v3h-42zM1217 707h24v3h-24zM1245 707h26v3h-26z"/></g><g><path class="st6" d="M1171 729h28v4h-28zM1202 729h30v4h-30zM1234 729h20v4h-20zM1257 729h14v4h-14z"/></g><g><path class="st6" d="M1171 721h42v4h-42zM1217 721h24v4h-24zM1245 721h26v4h-26z"/></g></g><g><path class="st6" d="M1298 681h27v4h-27zM1329 681h30v4h-30zM1361 681h19v4h-19zM1383 681h15v4h-15zM1298 697h27v4h-27zM1329 697h30v4h-30zM1361 697h19v4h-19zM1383 697h15v4h-15z"/><g><path class="st6" d="M1298 673h42v3h-42zM1344 673h24v3h-24zM1371 673h27v3h-27z"/></g><g><path class="st6" d="M1298 690h42v3h-42zM1344 690h24v3h-24zM1371 690h27v3h-27z"/></g><g><path class="st6" d="M1298 713h27v4h-27zM1329 713h30v4h-30zM1361 713h19v4h-19zM1383 713h15v4h-15z"/></g><g><path class="st6" d="M1298 706h42v3h-42zM1344 706h24v3h-24zM1371 706h27v3h-27z"/></g><g><path class="st6" d="M1298 728h27v4h-27zM1329 728h30v4h-30zM1361 728h19v4h-19zM1383 728h15v4h-15z"/></g><g><path class="st6" d="M1298 720h42v4h-42zM1344 720h24v4h-24zM1371 720h27v4h-27z"/></g></g><g><path class="st6" d="M1419 681h28v4h-28zM1450 681h30v4h-30zM1482 681h19v4h-19zM1504 681h15v4h-15zM1419 697h28v4h-28zM1450 697h30v4h-30zM1482 697h19v4h-19zM1504 697h15v4h-15z"/><g><path class="st6" d="M1419 673h42v3h-42zM1465 673h24v3h-24zM1493 673h26v3h-26z"/></g><g><path class="st6" d="M1419 690h42v3h-42zM1465 690h24v3h-24zM1493 690h26v3h-26z"/></g><g><path class="st6" d="M1419 713h28v4h-28zM1450 713h30v4h-30zM1482 713h19v4h-19zM1504 713h15v4h-15z"/></g><g><path class="st6" d="M1419 706h42v3h-42zM1465 706h24v3h-24zM1493 706h26v3h-26z"/></g><g><path class="st6" d="M1419 728h28v4h-28zM1450 728h30v4h-30zM1482 728h19v4h-19zM1504 728h15v4h-15z"/></g><g><path class="st6" d="M1419 720h42v4h-42zM1465 720h24v4h-24zM1493 720h26v4h-26z"/></g></g></g><path class="st15" d="M427 588h120v31H427zM427 538h120v31H427zM427 487h120v31H427z"/><g><path class="st15" d="M2147 443h744v376h-744z"/><path class="st13" d="M2155 453h728v356h-728z"/><path class="st15" d="M2233 310h11v133h-11zM2794 310h10v133h-10z"/><path class="st6" d="M2607 775h-417V483h417v292zm-414-2h411V486h-411v287z"/><path class="st14" d="M2576 735h-370s60-42 78-40 47 19 63 20c17 1 26-60 45-57s34 56 43 51c8-5 37-7 55 0 17 8 37-24 52-23 14 1 34 49 34 49zM2212 645h71v5h-71zM2212 655h71v4h-71zM2206 589h370s-60-43-78-41-47 20-63 21c-17 0-26-60-45-57-19 2-34 56-43 51-8-5-37-8-55 0-17 7-37-24-51-23-15 1-35 49-35 49z"/><path class="st6" d="M2212 507h71v4h-71zM2212 517h71v4h-71z"/><g><path class="st6" d="M2623 642h29v4h-29zM2655 642h32v4h-32zM2689 642h20v4h-20zM2713 642h15v4h-15zM2623 658h29v4h-29zM2655 658h32v4h-32zM2689 658h20v4h-20zM2713 658h15v4h-15z"/><g><path class="st6" d="M2623 633h44v3h-44zM2671 633h26v3h-26zM2700 633h28v3h-28z"/></g><g><path class="st6" d="M2623 650h44v4h-44zM2671 650h26v4h-26zM2700 650h28v4h-28z"/></g><g><path class="st6" d="M2623 675h29v4h-29zM2655 675h32v4h-32zM2689 675h20v4h-20zM2713 675h15v4h-15z"/></g><g><path class="st6" d="M2623 667h44v4h-44zM2671 667h26v4h-26zM2700 667h28v4h-28z"/></g><g><path class="st6" d="M2623 691h29v4h-29zM2655 691h32v4h-32zM2689 691h20v4h-20zM2713 691h15v4h-15z"/></g><g><path class="st6" d="M2623 683h44v4h-44zM2671 683h26v4h-26zM2700 683h28v4h-28z"/></g></g><g><path class="st6" d="M2750 642h29v4h-29zM2783 642h31v4h-31zM2817 642h20v4h-20zM2840 642h16v4h-16zM2750 658h29v4h-29zM2783 658h31v4h-31zM2817 658h20v4h-20zM2840 658h16v4h-16z"/><g><path class="st6" d="M2750 633h44v3h-44zM2799 633h25v3h-25zM2828 633h28v3h-28z"/></g><g><path class="st6" d="M2750 650h44v4h-44zM2799 650h25v4h-25zM2828 650h28v4h-28z"/></g><g><path class="st6" d="M2750 675h29v4h-29zM2783 675h31v4h-31zM2817 675h20v4h-20zM2840 675h16v4h-16z"/></g><g><path class="st6" d="M2750 667h44v4h-44zM2799 667h25v4h-25zM2828 667h28v4h-28z"/></g><g><path class="st6" d="M2750 691h29v4h-29zM2783 691h31v4h-31zM2817 691h20v4h-20zM2840 691h16v4h-16z"/></g><g><path class="st6" d="M2750 683h44v4h-44zM2799 683h25v4h-25zM2828 683h28v4h-28z"/></g></g><path class="st15" d="M2623 486h233v114h-233z"/><g><path class="st6" d="M2674 497h23v3h-23zM2636 497h32v3h-32zM2702 497h28v3h-28zM2636 505h37v2h-37zM2679 505h18v2h-18zM2700 505h23v2h-23z"/></g><g><path class="st6" d="M2674 522h23v3h-23zM2636 522h32v3h-32zM2702 522h28v3h-28zM2636 530h37v3h-37zM2679 530h18v3h-18zM2700 530h23v3h-23z"/></g><g><path class="st6" d="M2674 548h23v3h-23zM2636 548h32v3h-32zM2702 548h28v3h-28zM2636 556h37v3h-37zM2679 556h18v3h-18zM2700 556h23v3h-23z"/></g><g><path class="st6" d="M2674 576h23v2h-23zM2636 576h32v2h-32zM2702 576h28v2h-28zM2636 584h37v2h-37zM2679 584h18v2h-18zM2700 584h23v2h-23z"/></g><g><path class="st6" d="M2623 773h233s-38-27-49-26-30 12-40 13c-11 0-17-38-28-36-12 2-22 35-27 32-6-3-24-5-35 0s-23-15-32-14c-10 0-22 31-22 31zM2627 721h44v3h-44zM2627 727h44v3h-44z"/></g></g><g><path class="st22" d="M650 1390s16-3 20 0c4 4 5 9 5 9h-25v-9z"/><path class="st6" d="M479 1331s-23 18-27 45c-5 28 49 23 49 23l-22-68z"/><path class="st20" d="M549 1568s1 16 4 17h16l19-1s0-4-6-5c-5-1-15-5-18-13-4-7-15 2-15 2z"/><path class="st20" d="M583 1568s1 16 4 17h16l19-1s0-4-6-5c-5-1-15-5-18-13-4-7-15 2-15 2z"/><path class="st21" d="M476 1438c-1 1-11 28-11 47h76s25 4 25 9c1 6 6 34 16 75h16s-3-95-8-102c-5-6-53-25-69-27-15-2-45-2-45-2z"/><path class="st21" d="M459 1438c-1 1-11 31 2 47h47s25 4 25 9c1 6 6 34 16 75h16s-3-95-8-102c-5-6-53-25-69-27l-29-2z"/><path class="st22" d="M506 1326l12 7 16-3-2-12-2-8-15-7-6-3 1 6c1 12-4 20-4 20z"/><path class="st22" d="M536 1309s-25 7-29-8-11-25 4-31c16-5 21 0 24 5 3 4 7 31 1 34z"/><path class="st28" d="M534 1273s-2 18-6 17c-3 0-7-1-6 4 0 6 6 12-6 13-11 1-28-29-25-34 9-16 56-20 43 0z"/><path class="st20" d="M530 1322l-20-8c-3 1-5 8-5 8l32 7s-3-5-7-7z"/><path class="st6" d="M558 1346s-10-15-21-17l-32-7s-27 5-29 12c-3 6-28 117-20 128s76 9 86 2 12-52 13-78l3-40z"/><path class="st19" d="M516 1471h-57c-10 0-18-8-18-18v-85c0-10 8-18 18-18h57c10 0 18 8 18 18v85c0 10-8 18-18 18z"/><path class="st14" d="M568 1513H452c-4 0-8-4-8-8v-13c0-4 4-7 8-7h116c4 0 7 3 7 7v13c0 5-3 8-7 8z"/><path class="st21" d="M505 1513h9v69h-9z"/><path class="st6" d="M537 1329s18 2 28 19c6 10 24 34 36 34l49 8v10l-57 1h-2c-6-1-37-7-41-15-5-8-13-57-13-57z"/><path class="st21" d="M480 1578h59v4h-59z"/><path class="st21" d="M479 1587a5 5 0 1111 0 5 5 0 01-11 0zM527 1587a5 5 0 1110 0 5 5 0 01-10 0z"/></g><g><path class="st22" d="M839 1390s16-3 20 0c4 4 5 9 5 9h-25v-9z"/><path class="st6" d="M668 1331s-23 18-27 45c-4 28 50 23 50 23l-23-68z"/><path class="st20" d="M739 1568s1 16 4 17h15l20-1s-1-4-6-5c-6-1-15-5-19-13-3-7-14 2-14 2z"/><path class="st20" d="M772 1568s1 16 5 17h15l19-1s0-4-5-5c-6-1-15-5-19-13-4-7-15 2-15 2z"/><path class="st21" d="M665 1438c-1 1-11 28-10 47h76s24 4 25 9c0 6 5 34 15 75h16s-3-95-8-102c-5-6-53-25-68-27-16-2-46-2-46-2z"/><path class="st21" d="M648 1438c0 1-11 31 2 47h48s24 4 25 9c0 6 5 34 15 75h16s-3-95-8-102c-4-6-53-25-68-27l-30-2z"/><path class="st22" d="M696 1326l11 7 17-3-3-12-1-8-16-7-6-3 1 6c1 12-3 20-3 20z"/><path class="st22" d="M725 1309s-24 7-29-8c-5-16-11-25 5-31 15-5 20 0 23 5 3 4 8 31 1 34z"/><path class="st20" d="M723 1273s-1 18-5 17c-4 0-7-1-7 4 1 6 6 12-6 13-11 1-28-29-24-34 9-16 55-20 42 0zM719 1322l-20-8c-2 0-5 8-5 8l32 7s-2-5-7-7z"/><path class="st6" d="M748 1346s-10-15-22-17l-32-7s-26 5-29 12c-3 6-27 117-20 128 7 10 77 9 87 2 9-7 11-52 13-78l3-40z"/><path class="st19" d="M706 1471h-58c-10 0-18-8-18-18v-85c0-10 8-18 18-18h58c9 0 18 8 18 18v85c0 10-9 18-18 18z"/><path class="st14" d="M757 1513H641c-4 0-7-4-7-8v-13c0-4 3-7 7-7h116c4 0 7 3 7 7v13c0 5-3 8-7 8z"/><path class="st21" d="M695 1513h8v69h-8z"/><path class="st6" d="M726 1329s18 2 28 19c6 10 24 34 36 34l49 8v10l-56 1h-2c-7-1-37-7-42-15s-13-57-13-57z"/><path class="st21" d="M670 1578h58v4h-58z"/><path class="st21" d="M669 1587a5 5 0 1110 0 5 5 0 01-10 0zM717 1587a5 5 0 1110 0 5 5 0 01-10 0z"/></g><g><path class="st20" d="M3012 1570l-2-1-10-57-14-81-4-23h10l2 13 13 93 7 55-2 1z"/><path class="st20" d="M2994 1421c-7 3-8 10-8 10l-4-23h10l2 13zM2495 1570l2-1 10-57 14-81 4-23h-10l-2 13-12 93-8 55 2 1z"/><path class="st20" d="M2513 1421c7 3 8 10 8 10l4-23h-10l-2 13z"/><path class="st20" d="M3016 1417h-543a9 9 0 110-18h543a9 9 0 110 18z"/></g><g><path class="st22" d="M2974 1390s16-3 20 0c4 4 5 9 5 9h-25v-9z"/><path class="st6" d="M2803 1331s-23 18-27 45c-5 28 49 23 49 23l-22-68z"/><path class="st20" d="M2873 1568s1 16 4 17h16l19-1s0-4-6-5c-5-1-15-5-18-13-4-7-15 2-15 2z"/><path class="st20" d="M2907 1568s1 16 4 17h16l19-1s0-4-6-5c-5-1-15-5-18-13-4-7-15 2-15 2z"/><path class="st21" d="M2800 1438c-1 1-11 28-11 47h76s25 4 25 9c1 6 6 34 16 75h16s-3-95-8-102c-5-6-53-25-69-27s-45-2-45-2z"/><path class="st21" d="M2783 1438c-1 1-11 31 2 47h47s25 4 25 9c1 6 6 34 16 75h16s-3-95-8-102c-5-6-53-25-69-27l-29-2z"/><path class="st22" d="M2830 1326l12 7 16-3-2-12-2-8-15-7-6-3 1 6c1 12-4 20-4 20z"/><path class="st22" d="M2860 1309s-25 7-29-8c-5-16-11-25 4-31 16-5 21 0 24 5 3 4 7 31 1 34z"/><path class="st20" d="M2858 1273s-2 18-6 17c-3 0-7-1-6 4 0 6 6 12-6 13-11 1-28-29-25-34 9-16 56-20 43 0zM2854 1322l-20-8c-3 1-5 8-5 8l32 7s-3-5-7-7z"/><path class="st6" d="M2882 1346s-10-15-21-17l-32-7s-27 5-29 12c-3 6-28 117-20 128s76 9 86 2 12-52 13-78l3-40z"/><path class="st19" d="M2840 1471h-57c-10 0-18-8-18-18v-85c0-10 8-18 18-18h57c10 0 18 8 18 18v85c0 10-8 18-18 18z"/><path class="st14" d="M2892 1513h-116c-4 0-8-4-8-8v-13c0-4 4-7 8-7h116c4 0 7 3 7 7v13c0 5-3 8-7 8z"/><path class="st21" d="M2829 1513h9v69h-9z"/><path class="st6" d="M2861 1329s18 2 28 19c6 10 24 34 36 34l49 8v10l-57 1h-2c-6-1-37-7-41-15-5-8-13-57-13-57z"/><path class="st21" d="M2804 1578h59v4h-59z"/><path class="st21" d="M2803 1587a5 5 0 1111 0 5 5 0 01-11 0zM2851 1587a5 5 0 1110 0 5 5 0 01-10 0z"/></g><g><path class="st22" d="M2697 1390s16-3 20 0c4 4 5 9 5 9h-25v-9z"/><path class="st6" d="M2526 1331s-22 18-27 45c-4 28 50 23 50 23l-23-68z"/><path class="st20" d="M2597 1568s1 16 4 17h15l20-1s-1-4-6-5c-6-1-15-5-19-13-3-7-14 2-14 2z"/><path class="st20" d="M2631 1568s1 16 4 17h15l20-1s-1-4-6-5-15-5-19-13c-3-7-14 2-14 2z"/><path class="st21" d="M2523 1438c-1 1-11 28-10 47h76s24 4 25 9c0 6 5 34 15 75h16s-3-95-8-102c-4-6-53-25-68-27s-46-2-46-2z"/><path class="st21" d="M2506 1438c0 1-11 31 2 47h48s24 4 25 9c0 6 6 34 15 75h16s-3-95-8-102c-4-6-53-25-68-27l-30-2z"/><path class="st22" d="M2554 1326l11 7 17-3a1030 1030 0 00-3-12l-1-8-16-7-5-3v6c1 12-3 20-3 20z"/><path class="st22" d="M2583 1309s-24 7-29-8c-4-16-11-25 5-31 15-5 20 0 23 5 3 4 8 31 1 34z"/><path class="st28" d="M2581 1273s-1 18-5 17c-4 0-7-1-7 4 1 6 6 12-6 13-11 1-28-29-24-34 9-16 55-20 42 0z"/><path class="st20" d="M2578 1322l-21-8c-2 0-5 8-5 8l32 7s-2-5-6-7z"/><path class="st6" d="M2606 1346s-10-15-22-17l-32-7s-26 5-29 12c-3 6-27 117-20 128s77 9 87 2c9-7 11-52 13-78l3-40z"/><path class="st19" d="M2564 1471h-58c-10 0-18-8-18-18v-85c0-10 8-18 18-18h58c10 0 18 8 18 18v85c0 10-8 18-18 18z"/><path class="st14" d="M2615 1513h-116c-4 0-7-4-7-8v-13c0-4 3-7 7-7h116c4 0 7 3 7 7v13c0 5-3 8-7 8z"/><path class="st21" d="M2553 1513h8v69h-8z"/><path class="st6" d="M2584 1329s18 2 28 19c7 10 24 34 36 34s49 8 49 8v10l-56 1h-2c-6-1-37-7-42-15s-13-57-13-57z"/><path class="st21" d="M2528 1578h58v4h-58z"/><path class="st21" d="M2527 1587a5 5 0 1110 0 5 5 0 01-10 0zM2575 1587a5 5 0 1110 0 5 5 0 01-10 0z"/></g><g><path class="st22" d="M1634 1389s16-4 20 0c4 3 6 9 6 9h-26v-9z"/><path class="st6" d="M1463 1329s-22 18-27 46c-4 27 50 22 50 22l-23-68z"/><path class="st20" d="M1534 1567s1 15 4 16h35s0-5-6-6-15-5-19-12c-3-8-14 2-14 2z"/><path class="st20" d="M1568 1567s1 15 4 16h35s0-5-6-6-15-5-19-12c-3-8-14 2-14 2z"/><path class="st21" d="M1460 1436c-1 1-11 28-10 47h76s24 4 25 10l15 74h16s-3-95-8-101c-4-7-52-26-68-28s-46-2-46-2z"/><path class="st21" d="M1444 1436c-1 1-11 31 1 47h48s24 4 25 10c1 5 6 33 16 74h15s-3-95-8-101c-4-7-52-26-68-28l-29-2z"/><path class="st22" d="M1491 1324l11 7 17-3-2-11-1-1-1-8-16-7-5-3v6c1 12-3 20-3 20z"/><path class="st22" d="M1521 1307s-25 8-30-8c-4-15-11-25 5-31 16-5 20 0 23 5s8 31 2 34z"/><path class="st28" d="M1518 1271s-1 18-5 17c-4 0-7-1-7 5 1 5 6 11-5 12-12 1-28-28-25-34 9-16 55-20 42 0z"/><path class="st20" d="M1515 1320c-1 0-19-8-21-7-2 0-5 7-5 7l32 7s-2-5-6-7z"/><path class="st6" d="M1543 1344s-10-14-22-17l-32-7s-26 5-29 12-27 117-20 128 77 9 87 2c10-6 11-52 13-78l3-40z"/><path class="st19" d="M1501 1469h-58c-10 0-18-8-18-18v-85c0-10 8-18 18-18h58c10 0 18 8 18 18v85c0 10-8 18-18 18z"/><path class="st14" d="M1552 1511h-116c-4 0-7-3-7-7v-14c0-4 3-7 7-7h116c4 0 8 3 8 7v14c0 4-4 7-8 7z"/><path class="st21" d="M1490 1511h8v69h-8z"/><path class="st6" d="M1521 1327s18 2 28 19c7 10 25 34 36 35l49 8v9l-56 1h-2c-6-1-37-7-42-15s-13-57-13-57z"/><path class="st21" d="M1465 1576h58v4h-58z"/><path class="st21" d="M1464 1585a5 5 0 1110 0 5 5 0 01-10 0zM1512 1585a5 5 0 1110 0 5 5 0 01-10 0z"/></g><g><path class="st22" d="M1870 1389s16-4 20 0c4 3 5 9 5 9h-25v-9z"/><path class="st6" d="M1699 1329s-23 18-27 46c-5 27 50 22 50 22l-23-68z"/><path class="st20" d="M1769 1567s1 15 4 16h35s0-5-5-6c-6-1-16-5-19-12-4-8-15 2-15 2z"/><path class="st20" d="M1803 1567s1 15 4 16h35s0-5-6-6c-5-1-15-5-18-12-4-8-15 2-15 2z"/><path class="st21" d="M1696 1436c-1 1-11 28-11 47h76s25 4 26 10c0 5 5 33 15 74h16s-3-95-8-101c-5-7-53-26-68-28-16-2-46-2-46-2z"/><path class="st21" d="M1679 1436c-1 1-11 31 2 47h48s24 4 25 10c0 5 5 33 15 74h16s-3-95-8-101c-5-7-53-26-68-28l-30-2z"/><path class="st22" d="M1727 1324l11 7 16-3-2-11v-1l-2-8-15-7-6-3 1 6c1 12-3 20-3 20z"/><path class="st22" d="M1756 1307s-25 8-29-8-11-25 5-31c15-5 20 0 23 5s8 31 1 34z"/><path class="st20" d="M1754 1271s-2 18-5 17c-4 0-8-1-7 5 1 5 6 11-6 12-11 1-28-28-25-34 9-16 56-20 43 0zM1750 1320s-18-8-20-7-5 7-5 7l32 7s-3-5-7-7z"/><path class="st6" d="M1778 1344s-10-14-21-17l-32-7s-27 5-29 12c-3 7-28 117-20 128s76 9 86 2 12-52 14-78l2-40z"/><path class="st19" d="M1736 1469h-57c-10 0-18-8-18-18v-85c0-10 8-18 18-18h57c10 0 18 8 18 18v85c0 10-8 18-18 18z"/><path class="st14" d="M1788 1511h-116c-4 0-8-3-8-7v-14c0-4 4-7 8-7h116c4 0 7 3 7 7v14c0 4-3 7-7 7z"/><path class="st21" d="M1726 1511h8v69h-8z"/><path class="st6" d="M1757 1327s18 2 28 19c6 10 24 34 36 35 12 0 49 8 49 8v9l-57 1h-2c-6-1-36-7-41-15s-13-57-13-57z"/><path class="st21" d="M1701 1576h58v4h-58z"/><path class="st21" d="M1699 1585a5 5 0 1111 0 5 5 0 01-11 0zM1747 1585a5 5 0 1111 0 5 5 0 01-11 0z"/></g><path fill="none" stroke="#2f2d2c" stroke-width="7" stroke-miterlimit="10" d="M22 1726h3134"/></svg>