<svg fill="none" xmlns="http://www.w3.org/2000/svg" viewBox="0 0 50 76">
    <g filter="url(#filter0_d)">
        <path fill-rule="evenodd" clip-rule="evenodd"
              d="M5.032 0C3.378 0 2 1.378 2 3.858V70l19.291-14.055L40.858 70V3.583C40.858.937 42.696.092 43.614 0H5.031z"
              fill="#031435"/>
    </g>
    <mask id="a" maskUnits="userSpaceOnUse" x="7" y="24" width="30" height="15">
        <path d="M23.438 24.581v.394H35.09V38.13l-.037.045a.822.822 0 01-.524.266l-.069.005v.155H36.497v-.155l-.064-.005a.793.793 0 01-.51-.245l-.056-.06V24.188H23.438v.393z"
              fill="#fff"/>
        <path d="M27.733 25.925c-.563.129-.792.173-1.032.195a.891.891 0 00-.108.014c-.013.005-.015.019-.015.1v.095l.034.013c.048.018.11.03.206.04.217.024.277.134.312.57.01.122.005 1.126-.006 1.181l-.004.023-.084-.056a1.507 1.507 0 00-.526-.218 2.367 2.367 0 00-.968.07c-.223.074-.436.217-.647.435a1.64 1.64 0 00-.461.862c-.017.088-.02.132-.02.305 0 .28.03.467.11.704.081.233.173.384.34.552.247.249.485.38.779.433.278.048.638.034.878-.036.145-.042.267-.098.489-.225a.884.884 0 01.144-.074c.003.004.007.105.009.224l.002.218.04.006c.06.009.093 0 .212-.057.128-.06.181-.08.327-.114.13-.032.266-.055.454-.079.18-.023.35-.057.358-.072a.234.234 0 00.018-.145c-.014-.052-.007-.049-.176-.063a1.251 1.251 0 01-.325-.053l-.023-.01-.006-.176c-.007-.2-.012-2.484-.005-2.76.002-.1.001-.37-.002-.605l-.01-.835a7.464 7.464 0 00-.015-.452c-.015-.065-.04-.066-.279-.01zm-1.198 2.268c.333.085.542.353.585.748.017.164.028.663.025 1.168l-.002.502-.066.037a1.646 1.646 0 01-.331.141.656.656 0 01-.216.024.985.985 0 01-.345-.05 1.08 1.08 0 01-.699-.71 2.032 2.032 0 01-.088-.627c0-.361.106-.717.288-.958a.724.724 0 01.485-.289c.09-.017.27-.01.364.014zM23.19 25.96c-.263.169-.734.335-1.092.384-.036.005-.04.008-.046.032a.53.53 0 000 .108c.007.097-.006.088.165.1.14.01.18.019.264.058.06.027.063.028.073.07.02.076.027.136.036.27.013.22.03 3.357.018 3.556-.011.213-.032.302-.082.357-.025.027-.11.052-.268.076a.697.697 0 00-.244.065c-.034.017-.036.02-.033.047.003.016.007.059.01.097l.006.07.21-.006a6.03 6.03 0 00.33-.016c.08-.008.263-.011.547-.01.38 0 .53.004.912.025l.098.005v-.09c0-.082-.008-.151-.02-.162a3.196 3.196 0 00-.216-.03 2.719 2.719 0 01-.243-.035.156.156 0 01-.108-.102l-.02-.05-.006-1.684a188.521 188.521 0 00-.022-2.98l-.006-.195H23.25l-.06.04zM11.482 26.063a10.362 10.362 0 01-1.515 0l-.155-.007-.005.03a2.358 2.358 0 00-.01.123l-.005.093.03.006c.088.02.28.079.335.105.124.057.154.104.34.52.118.267.134.306.51 1.203.223.534.316.767.314.783-.006.028-.375.784-.52 1.065-.075.145-.112.209-.117.2-.01-.02-1.003-2.337-1.1-2.568a27.236 27.236 0 01-.408-1.022.341.341 0 01-.021-.078c0-.035.077-.104.18-.159.14-.075.13-.064.148-.176.024-.147.07-.135-.438-.111a6.515 6.515 0 01-.714.008c-.163-.006-.36-.015-.437-.02a.61.61 0 00-.18.002l-.037.01.005.058.01.127.007.069.084.037c.046.02.096.044.11.055.037.026.1.128.182.29.088.176.04.067.778 1.793.353.825.688 1.603.744 1.728.194.43.355.815.437 1.05l.038.104h.413l.085-.183c.047-.102.158-.33.248-.508a65.97 65.97 0 01.699-1.337.598.598 0 01.073.127 59.941 59.941 0 01.702 1.618c.032.073.069.168.082.209l.023.074.207.003.205.002.027-.068c.229-.593.582-1.492.75-1.91.138-.34.175-.428.364-.878.237-.564.429-1.045.65-1.631.096-.256.13-.333.169-.383a.87.87 0 01.23-.154c.085-.04.1-.069.098-.177-.001-.108-.004-.114-.055-.12a2.369 2.369 0 00-.238.003 4.433 4.433 0 01-.5-.005c-.35-.015-.365-.014-.383.038a.546.546 0 00-.003.188c.007.043.027.052.218.11.082.025.152.048.155.052.005.004.01.027.013.051.005.04-.002.067-.059.236-.034.106-.228.61-.428 1.123-.2.512-.472 1.214-.604 1.558a24.82 24.82 0 01-.244.628.462.462 0 01-.036-.077 235.8 235.8 0 00-.627-1.469l-.145-.334.025-.055c.047-.106.564-1.142.643-1.288.128-.236.186-.307.295-.356.06-.027.33-.118.412-.139.033-.008.048-.017.054-.03a.941.941 0 00.01-.21c-.004-.007-.125-.012-.4-.015-.216-.003-.551-.01-.746-.016a5.64 5.64 0 00-.357-.004.561.561 0 00-.014.185l.005.062.106.03c.17.046.244.075.29.115l.04.035-.006.045a2.57 2.57 0 01-.16.416c-.108.232-.382.796-.387.796-.01 0-.113-.248-.26-.616a11.454 11.454 0 00-.155-.376c-.07-.153-.091-.279-.057-.335.025-.042.074-.06.201-.077.154-.02.183-.027.194-.055a.684.684 0 00.006-.127l-.003-.106-.057-.001c-.031 0-.192.007-.358.018zM29.762 26.462v.394h4.225v-.788h-4.225v.394zM20.224 27.658l-.079.005-.055.07c-.157.2-.226.267-.39.38a1.293 1.293 0 01-.488.207l-.076.015.003.036.01.086c.006.062.035.097.092.112.092.023.216.065.254.084.082.04.092.082.114.419.016.244.016 1.555 0 1.653-.012.081-.016.085-.118.136a1.1 1.1 0 01-.255.096c-.125.035-.168.06-.176.1a.543.543 0 00.006.157c.003.003.15-.001.328-.008.597-.025.649-.025 1.058-.005.213.01.473.018.58.018h.194l.01-.024a.313.313 0 00-.004-.18c-.031-.047-.065-.056-.34-.089-.232-.027-.316-.078-.368-.22-.018-.05-.02-.067-.025-.563a52.142 52.142 0 00-.017-.809c-.011-.323-.01-.352.032-.477.062-.183.167-.315.254-.314.036 0 .095.03.173.087a.74.74 0 00.254.131c.163.042.3.005.407-.11a.508.508 0 00.09-.567.66.66 0 00-.231-.218.542.542 0 00-.478-.004 1.393 1.393 0 00-.316.276c-.023.032-.08.118-.124.19a4.208 4.208 0 01-.089.14 3.008 3.008 0 01-.006-.363c0-.204 0-.39-.005-.413l-.006-.042-.068.002-.145.006zM16.537 27.818c-.22.02-.402.062-.574.136a1.676 1.676 0 00-1.041 1.652c.007.295.043.486.133.702.075.178.159.299.322.462.318.317.672.49 1.117.546.125.017.363.02.488.01.677-.06 1.149-.364 1.443-.928.13-.249.18-.488.18-.862 0-.25-.01-.322-.074-.526a1.633 1.633 0 00-.427-.702c-.275-.276-.57-.42-.99-.479a4.05 4.05 0 00-.577-.01zm.433.287c.265.07.46.26.563.553.067.191.09.364.095.745.01.643-.032.946-.169 1.226a.723.723 0 01-.34.36.629.629 0 01-.341.068.742.742 0 01-.36-.07.656.656 0 01-.337-.31c-.109-.224-.14-.38-.175-.867a5.719 5.719 0 01.046-1.005c.081-.41.314-.662.66-.717.086-.013.278-.004.358.017zM29.762 28.653v.39h4.225v-.78h-4.225v.39zM29.76 30.838v.39h4.225v-.779H29.76v.39zM9.352 33.002c-.425.033-.729.126-1.002.307a2.09 2.09 0 00-.378.378 1.537 1.537 0 00-.242 1.18c.053.24.184.518.334.705.224.278.517.44 1.327.735.558.203.816.323.952.445a.91.91 0 01.252.403.832.832 0 01-.004.329.895.895 0 01-.324.47c-.217.161-.6.255-.902.221a1.3 1.3 0 01-.475-.143 1.08 1.08 0 01-.3-.226c-.14-.148-.21-.27-.367-.625A3.836 3.836 0 008.14 37a1.478 1.478 0 00-.196-.001l-.19.006.006.207.018.583c.015.414.016.419.072.456.017.01.052.028.079.038.093.035.644.194.732.21.392.078.745.089 1.115.038.335-.046.629-.177.966-.427.281-.208.42-.417.512-.77.102-.392.086-.854-.04-1.15a1.713 1.713 0 00-.415-.548c-.229-.188-.626-.379-1.106-.528-.595-.186-.865-.332-1.037-.559a.683.683 0 01-.051-.777c.037-.063.162-.19.23-.234.26-.17.677-.192.966-.053.23.111.38.263.504.512a4.577 4.577 0 01.193.48c.005.005.343.027.364.023.02-.005.025-.011.031-.046.028-.165-.032-.861-.099-1.158l-.014-.06-.136-.044A3.81 3.81 0 009.566 33h-.214zM31.21 33.02c-.005.004-.143.075-.306.159a4.56 4.56 0 01-.508.231l-.21.08v.197l.145.054c.241.092.279.11.292.136.036.067.036.094.035 2.034 0 1.718-.007 2.378-.026 2.6l-.006.072h.211l.075-.12c.157-.256.225-.366.237-.382.011-.016.02-.011.185.085.28.162.463.246.663.303.182.05.24.057.486.056.338 0 .508-.024.69-.096.27-.107.49-.254.701-.473.344-.354.547-.93.515-1.46a1.514 1.514 0 00-.118-.541 1.615 1.615 0 00-.386-.583 1.49 1.49 0 00-.514-.322 2.005 2.005 0 00-.762-.08c-.206.025-.33.064-.568.18a1.521 1.521 0 00-.44.314l-.054.053.005-.223c.003-.122 0-.526-.005-.896-.005-.371-.01-.83-.01-1.022v-.348l-.022-.008a1.424 1.424 0 00-.305 0zm1.27 2.471a.98.98 0 01.663.433c.112.172.201.423.236.657.027.192.007.563-.044.773-.035.15-.114.341-.185.448a1.213 1.213 0 01-.227.235c-.18.12-.41.187-.606.176a.851.851 0 01-.564-.268.566.566 0 01-.162-.372c-.024-.214-.04-.948-.03-1.46l.006-.355.042-.032c.085-.063.323-.17.466-.21.14-.039.27-.047.404-.025zM16.686 33.044a.493.493 0 00-.335.259.48.48 0 00-.05.241c0 .165.047.277.17.4a.508.508 0 00.297.164.545.545 0 00.453-.164.65.65 0 00.144-.267.622.622 0 00-.004-.29.565.565 0 00-.31-.314.693.693 0 00-.365-.03zM20.298 33.24v.156l.051.014c.027.008.113.026.19.041.282.054.307.06.355.078a.34.34 0 01.2.272c.024.169.086 2.089.096 2.96.014 1.093.014 1.041-.003 1.114-.014.059-.018.066-.052.087-.07.044-.23.11-.45.183l-.22.075-.006.031c-.007.035.002.243.01.257.008.01.088.005.324-.023a8.762 8.762 0 011.77-.022c.312.024.45.03.524.019a.538.538 0 00.067-.012 1.001 1.001 0 00.014-.251.58.58 0 00-.013-.077 15.215 15.215 0 00-.387-.05c-.211-.027-.396-.05-.41-.053l-.028-.005-.01-.13c-.006-.082-.01-.444-.01-1.024a36.86 36.86 0 00-.01-1.194c.001-.063-.003-.542-.012-1.066l-.015-.952.026-.049c.022-.045.03-.053.081-.078.079-.038.172-.056.337-.061.261-.009.523.047.692.147.15.088.302.309.364.524.045.154.054.233.054.463 0 .227-.01.31-.057.45-.104.315-.361.519-.715.566a2.56 2.56 0 01-.425-.007l-.034-.005.006.134c.01.206.006.197.084.242.374.21.918.253 1.357.107.105-.035.241-.099.329-.154.22-.14.434-.378.548-.61.16-.326.208-.776.118-1.086a1.922 1.922 0 00-.369-.678c-.184-.21-.431-.34-.797-.42a4.272 4.272 0 00-.989-.052 15.56 15.56 0 01-1.124.041c-.52.005-.536.004-.936-.022l-.465-.033-.06-.005v.157zM16.904 34.855a1.58 1.58 0 01-.436.297 2.117 2.117 0 01-.694.16c-.014 0-.015.012-.015.118v.117l.064.006c.2.019.322.045.403.085.11.056.121.073.132.2.008.101.011 1.646.003 1.902-.008.276-.014.311-.064.358a.257.257 0 01-.08.05 2.822 2.822 0 01-.274.047 4.974 4.974 0 00-.233.033l.002.136.006.133h.031a7.7 7.7 0 00.171-.014 13.31 13.31 0 011.155-.013c.192.006.447.013.565.015l.215.005.005-.086c.011-.15.015-.14-.043-.155a1.717 1.717 0 00-.134-.028 3.822 3.822 0 01-.364-.075l-.053-.017-.006-.066c-.01-.107-.007-.45.008-1.255.014-.716.013-1.545-.002-1.896l-.005-.133h-.137l-.136.001-.084.075zM13.878 34.952c-.707.051-1.271.363-1.632.9a1.959 1.959 0 00-.311 1.01c0 .32.119.723.286.974.244.366.715.636 1.268.727.132.022.462.022.612.001.414-.06.732-.214.997-.483.132-.134.228-.283.284-.443l.026-.076-.037-.032a.774.774 0 00-.127-.076l-.09-.044-.02.02-.157.177c-.113.128-.15.164-.214.206-.217.147-.33.18-.614.18a.98.98 0 01-.236-.016 1.133 1.133 0 01-.586-.337c-.232-.232-.351-.48-.408-.84a2.658 2.658 0 01.004-.625c.05-.272.157-.476.34-.653a.966.966 0 01.275-.196.713.713 0 01.353-.078c.104 0 .13.004.174.02.145.053.237.159.316.364.038.097.097.205.147.267a.601.601 0 00.239.167c.08.027.226.03.3.004a.402.402 0 00.268-.316c.039-.186-.007-.325-.157-.483-.187-.197-.427-.285-.854-.317a4.48 4.48 0 00-.446-.002zM25.546 35.125l-.03.011-.01.078c-.016.119-.015.156.004.173.025.022.106.046.281.08.084.018.164.037.177.044.018.01.028.026.042.072.028.09.033.463.013.942-.02.447-.015 1.037.009 1.201.03.213.078.346.168.464.145.19.376.323.645.374.132.024.369.023.5-.004.297-.059.556-.207.903-.515.064-.057.126-.11.138-.119l.02-.016v.096c0 .052.003.202.007.332l.005.236.08.007.08.005.16-.057c.293-.106.728-.23.88-.25.034-.004.103-.01.155-.013l.093-.006.006-.048a.903.903 0 00-.001-.127l-.008-.082h-.228c-.258 0-.248.003-.286-.07-.021-.039-.021-.044-.013-.428.008-.298.015-2.282.01-2.34l-.005-.048h-.697c-.383 0-.721.004-.75.008l-.053.007-.007.045c-.013.11 0 .21.03.234.012.01.042.017.103.02.273.018.369.035.448.075l.034.017.006.378c.005.301.002.508-.013 1.003-.02.703-.011.63-.098.754a.875.875 0 01-.23.225c-.183.128-.29.178-.433.199-.335.05-.58-.047-.69-.277a.467.467 0 01-.049-.17c-.03-.216-.034-.412-.029-1.474l.005-1.038-.04-.005a23.518 23.518 0 00-.67-.005c-.484 0-.638.003-.662.012z"
              fill="#fff"/>
    </mask>
    <g mask="url(#a)">
        <path d="M37.882 22.236H3.471V42.53h34.411V22.236z" fill="#fff"/>
    </g>
    <defs>
        <filter id="filter0_d" x="0" y="-2" width="49.614" height="78"
                filterUnits="userSpaceOnUse" color-interpolation-filters="sRGB">
            <feFlood flood-opacity="0" result="BackgroundImageFix"/>
            <feColorMatrix in="SourceAlpha"
                           values="0 0 0 0 0 0 0 0 0 0 0 0 0 0 0 0 0 0 127 0"/>
            <feOffset dx="2" dy="2"/>
            <feGaussianBlur stdDeviation="2"/>
            <feColorMatrix values="0 0 0 0 0 0 0 0 0 0 0 0 0 0 0 0 0 0 0.25 0"/>
            <feBlend in2="BackgroundImageFix" result="effect1_dropShadow"/>
            <feBlend in="SourceGraphic" in2="effect1_dropShadow" result="shape"/>
        </filter>
    </defs>
</svg>
